<svg width="152" height="56" viewBox="0 0 152 56" fill="none" xmlns="http://www.w3.org/2000/svg">
<path fill-rule="evenodd" clip-rule="evenodd" d="M8 28.4353L8.00193 28.2349L8.00591 28.0344L8.01195 27.8339L8.02004 27.6334L8.0302 27.4329L8.04241 27.2324L8.05669 27.032L8.07302 26.8316L8.09142 26.6313L8.11188 26.431L8.1344 26.231L8.15897 26.031L8.18561 25.8312L8.21431 25.6316L8.24506 25.4322L8.27787 25.2331L8.31274 25.0341L8.34965 24.8355L8.38862 24.6371L8.42964 24.439L8.47271 24.2412L8.51781 24.0438L8.56497 23.8468L8.61415 23.6501L8.66538 23.4539L8.71863 23.258L8.77392 23.0626L8.83123 22.8677L8.89056 22.6733L8.9519 22.4794L9.01526 22.286L9.08063 22.0931L9.148 21.9008L9.21736 21.7091L9.28872 21.518L9.36206 21.3275L9.43739 21.1377L9.51469 20.9485L9.59396 20.7601L9.67519 20.5723L9.75838 20.3852L9.84352 20.1989L9.9306 20.0134L10.0196 19.8286L10.1106 19.6446L10.2034 19.4615L10.2982 19.2792L10.3949 19.0977L10.4935 18.9172L10.594 18.7375L10.6963 18.5587L10.8005 18.3809L10.9066 18.204L11.0146 18.0281L11.1244 17.8532L11.236 17.6793L11.3494 17.5065L11.4647 17.3346L11.5818 17.1639L11.7006 16.9942L11.8213 16.8256L11.9437 16.6582L12.0679 16.4918L12.1938 16.3267L12.3215 16.1627L12.4509 15.9998L12.5821 15.8382L12.7149 15.6779L12.8494 15.5187L12.9857 15.3608L13.1235 15.2042L13.2631 15.0489L13.4043 14.8949L13.5471 14.7422L13.6915 14.5909L13.8376 14.4409L13.9852 14.2923L14.1345 14.1451L14.2852 13.9993L14.4376 13.8549L14.5915 13.7119L14.7469 13.5704L14.9038 13.4304L15.0622 13.2919L15.2221 13.1548L15.3834 13.0193L15.5462 12.8853L15.7105 12.7529L15.8761 12.622L16.0432 12.4927L16.2116 12.3649L16.3815 12.2388L16.5527 12.1143L16.7252 11.9914L16.899 11.8702L17.0742 11.7506L17.2506 11.6327L17.4283 11.5165L17.6073 11.402L17.7876 11.2892L17.969 11.1781L18.1517 11.0688L18.3355 10.9612L18.5205 10.8553L18.7067 10.7513L18.894 10.649L19.0824 10.5485L19.2719 10.4499L19.4625 10.353L19.6542 10.258L19.8469 10.1648L20.0407 10.0735L20.2354 9.98407L20.4312 9.8965L20.6279 9.81081L20.8256 9.72702L21.0242 9.64514L21.2237 9.56517L21.4241 9.48712L21.6254 9.41102L21.8275 9.33685L22.0305 9.26465L22.2343 9.1944L22.4389 9.12612L22.6442 9.05983L22.8503 8.99552L23.0572 8.93321L23.2648 8.87291L23.473 8.81462L23.682 8.75834L23.8916 8.70409L24.1018 8.65188L24.3126 8.60172L24.5241 8.55359L24.7361 8.50753L24.9486 8.46352L25.1617 8.42158L25.3753 8.38172L25.5894 8.34393L25.804 8.30823L26.019 8.27462L26.2344 8.2431L26.4502 8.21369L26.6664 8.18638L26.883 8.16118L27.0999 8.13808L27.3171 8.11712L27.5346 8.09827L27.7524 8.08154L27.9704 8.06695L29.1428 8L29.2097 13.6487L29.248 13.6482L29.4099 13.648L29.5718 13.6494L29.7337 13.6523L29.8958 13.6569L30.0578 13.663L30.2199 13.6707L30.382 13.68L30.5441 13.691L30.7061 13.7035L30.8682 13.7176L31.0301 13.7333L31.192 13.7506L31.3537 13.7696L31.5154 13.7901L31.6769 13.8122L31.8383 13.8359L31.9995 13.8612L32.1606 13.8881L32.3214 13.9166L32.4821 13.9467L32.6425 13.9784L32.8026 14.0116L32.9626 14.0465L33.1222 14.0829L33.2815 14.121L33.4406 14.1606L33.5993 14.2018L33.7576 14.2446L33.9156 14.2889L34.0733 14.3349L34.2305 14.3824L34.3873 14.4314L34.5437 14.4821L34.6997 14.5343L34.8552 14.588L35.0102 14.6433L35.1648 14.7002L35.3188 14.7586L35.4723 14.8185L35.6253 14.88L35.7777 14.9431L35.9295 15.0076L36.0808 15.0737L36.2315 15.1412L36.3815 15.2104L36.5309 15.2809L36.6797 15.3531L36.8278 15.4267L36.9752 15.5018L37.1219 15.5784L37.2679 15.6564L37.4132 15.736L37.5577 15.8169L37.7015 15.8994L37.8445 15.9833L37.9867 16.0687L38.1281 16.1555L38.2687 16.2437L38.4084 16.3334L38.5473 16.4244L38.6853 16.5169L38.8225 16.6108L38.9587 16.706L39.0941 16.8027L39.2285 16.9007L39.3619 17.0001L39.4945 17.1009L39.626 17.203L39.7566 17.3065L39.8861 17.4112L40.0147 17.5173L40.1422 17.6248L40.2687 17.7335L40.3942 17.8435L40.5186 17.9548L40.6418 18.0674L40.764 18.1813L40.8851 18.2964L41.0051 18.4127L41.1239 18.5303L41.2416 18.6491L41.3581 18.7692L41.4735 18.8904L41.5876 19.0128L41.7006 19.1364L41.8123 19.2612L41.9228 19.3871L42.0321 19.5142L42.1401 19.6424L42.2469 19.7717L42.3524 19.9022L42.4566 20.0337L42.5595 20.1663L42.6611 20.3L42.7614 20.4348L42.8603 20.5706L42.9579 20.7075L43.0541 20.8454L43.149 20.9842L43.2425 21.1241L43.3346 21.265L43.4253 21.4069L43.5145 21.5497L43.6024 21.6934L43.6888 21.8381L43.7738 21.9837L43.8573 22.1302L43.9394 22.2776L44.02 22.4259L44.0991 22.575L44.1767 22.725L44.2528 22.8758L44.3274 23.0274L44.4005 23.1799L44.4721 23.3331L44.5421 23.4871L44.6106 23.6419L44.6775 23.7974L44.7428 23.9537L44.8066 24.1106L44.8688 24.2683L44.9294 24.4266L44.9884 24.5857L45.0458 24.7453L45.1016 24.9057L45.1558 25.0666L45.2084 25.2282L45.2593 25.3903L45.3086 25.553L45.3562 25.7163L45.4022 25.8801L45.4465 26.0445L45.4892 26.2094L45.5301 26.3747L45.5695 26.5406L45.6071 26.7069L45.643 26.8737L45.6773 27.0408L45.7098 27.2085L45.7406 27.3765L45.7698 27.5449L45.7972 27.7136L45.8229 27.8827L45.8469 28.0522L45.8691 28.2219L45.8896 28.392L45.9084 28.5623L45.9254 28.7329L45.9407 28.9037L45.9543 29.0748L45.9661 29.2461L45.9761 29.4176L45.9844 29.5892L45.991 29.7611L45.9957 29.933L45.9988 30.1051L46 30.2773L45.9995 30.4496L45.9972 30.622L45.9931 30.7945L45.9873 30.9669L45.9797 31.1394L45.9704 31.3119L45.9592 31.4844L45.9463 31.6569L45.9316 31.8293L45.9151 32.0017L45.8969 32.174L45.8768 32.3461L45.855 32.5182L45.8315 32.6901L45.8061 32.8619L45.779 33.0335L45.7501 33.2049L45.7194 33.3761L45.687 33.5471L45.6528 33.7179L45.6168 33.8884L45.579 34.0586L45.5395 34.2286L45.4983 34.3982L45.4552 34.5675L45.4104 34.7364L45.3639 34.905L45.3156 35.0732L45.2656 35.241L45.2138 35.4085L45.1602 35.5754L45.105 35.742L45.048 35.908L44.9892 36.0736L44.9288 36.2387L44.8666 36.4032L44.8027 36.5672L44.7371 36.7307L44.6698 36.8936L44.6008 37.0559L44.5301 37.2177L44.4577 37.3787L44.3836 37.5392L44.3078 37.699L44.2304 37.8581L44.1512 38.0166L44.0705 38.1743L43.988 38.3314L43.904 38.4876L43.8182 38.6432L43.7309 38.7979L43.6419 38.9519L43.5513 39.1051L43.4591 39.2574L43.3653 39.409L43.2698 39.5596L43.1728 39.7094L43.0743 39.8583L42.9741 40.0063L42.8724 40.1534L42.7691 40.2996L42.6643 40.4448L42.5579 40.5891L42.45 40.7324L42.3406 40.8747L42.2297 41.0159L42.1173 41.1562L42.0034 41.2954L41.888 41.4335L41.7711 41.5706L41.6528 41.7066L41.533 41.8415L41.4118 41.9753L41.2892 42.108L41.1652 42.2395L41.0397 42.3699L40.9129 42.499L40.7846 42.627L40.655 42.7538L40.5241 42.8794L40.3918 43.0038L40.2582 43.1269L40.1232 43.2488L39.9869 43.3693L39.8494 43.4886L39.7105 43.6067L39.5704 43.7234L39.429 43.8387L39.2864 43.9528L39.1425 44.0655L38.9974 44.1768L38.8511 44.2867L38.7036 44.3953L38.555 44.5025L38.4051 44.6082L38.2541 44.7126L38.102 44.8155L37.9488 44.9169L37.7944 45.0169L37.639 45.1155L37.4825 45.2125L37.3249 45.3081L37.1662 45.4021L37.0065 45.4947L36.8459 45.5857L36.6841 45.6751L36.5215 45.7631L36.3578 45.8494L36.1932 45.9342L36.0276 46.0175L35.8611 46.0991L35.6937 46.1791L35.5254 46.2576L35.3562 46.3344L35.1862 46.4096L35.0153 46.4831L34.8436 46.555L34.6711 46.6253L34.4978 46.6939L34.3237 46.7608L34.1488 46.8261L33.9732 46.8896L33.7968 46.9515L33.6198 47.0116L33.4421 47.0701L33.2636 47.1268L33.0845 47.1818L32.9048 47.2351L32.7245 47.2866L32.5435 47.3364L32.362 47.3845L32.1798 47.4307L31.9972 47.4752L31.814 47.518L31.6302 47.5589L31.446 47.5981L31.2613 47.6355L31.0761 47.6711L30.8905 47.7049L30.7045 47.7368L30.518 47.767L30.3312 47.7954L30.1439 47.8219L29.9564 47.8466L29.7685 47.8695L29.5802 47.8905L29.3917 47.9097L29.2029 47.9271L29.0139 47.9426L28.8246 47.9563L28.6351 47.9681L28.4453 47.9781L28.2554 47.9862L28.0654 47.9924L27.8751 47.9968L27.6848 47.9993L27.4943 48L27.3038 47.9988L27.1132 47.9957L26.9225 47.9908L26.7318 47.9839L26.5411 47.9752L26.3504 47.9647L26.1598 47.9522L25.9691 47.9379L25.7786 47.9217L25.5881 47.9036L25.3977 47.8837L25.2075 47.8619L25.0174 47.8382L24.8274 47.8126L24.6377 47.7851L24.4481 47.7558L24.2588 47.7246L24.0697 47.6916L23.8808 47.6566L23.6923 47.6198L23.504 47.5812L23.3161 47.5406L23.1284 47.4982L22.9412 47.454L22.7543 47.4079L22.5678 47.3599L22.3817 47.3101L22.1961 47.2585L22.0109 47.205L21.8261 47.1497L21.6419 47.0925L21.4582 47.0335L21.275 46.9727L21.0923 46.91L20.9102 46.8455L20.7287 46.7793L20.5478 46.7112L20.3675 46.6413L20.1879 46.5696L20.0089 46.4961L19.8306 46.4208L19.653 46.3438L19.4761 46.265L19.2999 46.1844L19.1245 46.102L18.9499 46.0179L18.7761 45.932L18.603 45.8444L18.4308 45.7551L18.2595 45.664L18.0889 45.5713L17.9193 45.4768L17.7506 45.3806L17.5828 45.2827L17.4159 45.1831L17.25 45.0819L17.085 44.9789L16.921 44.8744L16.7581 44.7681L16.5961 44.6603L16.4352 44.5507L16.2754 44.4396L16.1166 44.3269L15.9589 44.2125L15.8023 44.0966L15.6469 43.979L15.4926 43.8599L15.3394 43.7393L15.1874 43.617L15.0366 43.4933L14.887 43.368L14.7387 43.2412L14.5915 43.1129L14.4457 42.983L14.3011 42.8517L14.1578 42.719L14.0157 42.5847L13.875 42.4491L13.7357 42.3119L13.5977 42.1734L13.461 42.0335L13.3257 41.8921L13.1919 41.7494L13.0594 41.6053L12.9283 41.4598L12.7987 41.313L12.6706 41.1649L12.5439 41.0154L12.4187 40.8647L12.295 40.7126L12.1728 40.5593L12.0521 40.4047L11.9329 40.2489L11.8153 40.0918L11.6993 39.9335L11.5848 39.774L11.472 39.6133L11.3607 39.4515L11.251 39.2885L11.143 39.1243L11.0366 38.9591L10.9318 38.7927L10.8288 38.6252L10.7274 38.4567L10.6276 38.287L10.5296 38.1164L10.4333 37.9447L10.3387 37.772L10.2459 37.5982L10.1548 37.4235L10.0654 37.2479L9.97782 37.0713L9.89201 36.8938L9.80798 36.7153L9.72574 36.536L9.64531 36.3557L9.56669 36.1747L9.4899 35.9927L9.41495 35.81L9.34183 35.6264L9.27057 35.442L9.20118 35.2569L9.13365 35.071L9.068 34.8844L9.00423 34.6971L8.94236 34.509L8.8824 34.3203L8.82434 34.1309L8.76821 33.9409L8.714 33.7502L8.66172 33.5589L8.61138 33.3671L8.56299 33.1747L8.51655 32.9817L8.47208 32.7882L8.42957 32.5941L8.38903 32.3996L8.35047 32.2046L8.31389 32.0092L8.2793 31.8133L8.24671 31.617L8.21611 31.4203L8.18752 31.2232L8.16094 31.0257L8.13638 30.8279L8.11383 30.6298L8.0933 30.4314L8.0748 30.2328L8.05833 30.0338L8.04389 29.8346L8.03149 29.6352L8.02113 29.4356L8.01281 29.2358L8.00653 29.0359L8.0023 28.8358L8.00013 28.6356L8 28.4353ZM27.3781 13.767L27.3325 9.91679L27.2892 9.92097L27.0904 9.94213L26.8921 9.96521L26.6939 9.99025L26.4965 10.0171L26.2993 10.046L26.1023 10.0768L25.9059 10.1095L25.7097 10.1441L25.5145 10.1805L25.319 10.219L25.1249 10.2592L24.9305 10.3014L24.7371 10.3455L24.5439 10.3914L24.3516 10.4392L24.1598 10.4888L23.9685 10.5403L23.7778 10.5937L23.588 10.6489L23.3985 10.7059L23.21 10.7648L23.022 10.8255L22.835 10.8878L22.6483 10.9522L22.4626 11.0183L22.2778 11.0861L22.0935 11.1558L21.9102 11.2271L21.7279 11.3002L21.5461 11.3752L21.3652 11.4519L21.1852 11.5303L21.0062 11.6104L20.8281 11.6922L20.651 11.7756L20.4745 11.8609L20.2993 11.9478L20.125 12.0363L19.9517 12.1266L19.7794 12.2184L19.6083 12.3119L19.4379 12.4071L19.2686 12.5039L19.1008 12.6021L18.9335 12.7023L18.7678 12.8038L18.6032 12.9068L18.4394 13.0115L18.2769 13.1178L18.1156 13.2256L17.9558 13.3347L17.7966 13.4458L17.639 13.558L17.4826 13.6717L17.3273 13.787L17.1734 13.9037L17.0209 14.0218L16.8693 14.1416L16.7194 14.2625L16.5706 14.3849L16.4232 14.5087L16.2771 14.634L16.1325 14.7605L15.989 14.8885L15.8471 15.0177L15.7064 15.1484L15.5674 15.2802L15.4296 15.4134L15.2934 15.5478L15.1585 15.6835L15.025 15.8207L14.8932 15.9587L14.7629 16.098L14.6337 16.2389L14.5064 16.3807L14.3806 16.5235L14.2561 16.6678L14.1334 16.813L14.012 16.9595L13.8923 17.107L13.7742 17.2557L13.6576 17.4054L13.5427 17.5561L13.4293 17.7079L13.3175 17.8609L13.2075 18.0146L13.0989 18.1696L12.9921 18.3254L12.8869 18.4822L12.7833 18.64L12.6815 18.7987L12.5813 18.9582L12.4829 19.1187L12.3861 19.28L12.291 19.4423L12.1975 19.6055L12.106 19.7693L12.016 19.934L11.9278 20.0996L11.8413 20.2659L11.7566 20.433L11.6737 20.6007L11.5925 20.7692L11.5131 20.9384L11.4354 21.1084L11.3596 21.2789L11.2855 21.4502L11.2132 21.6221L11.1427 21.7945L11.074 21.9676L11.0072 22.1413L10.9421 22.3155L10.8788 22.4903L10.8175 22.6655L10.7579 22.8414L10.7001 23.0177L10.6442 23.1945L10.5901 23.3716L10.5379 23.5494L10.4875 23.7274L10.439 23.9059L10.3923 24.0847L10.3474 24.264L10.3045 24.4435L10.2634 24.6234L10.2242 24.8036L10.1868 24.9841L10.1513 25.1648L10.1176 25.3458L10.0859 25.527L10.056 25.7085L10.028 25.8901L10.0018 26.0719L9.97758 26.2539L9.95519 26.436L9.93468 26.6182L9.91605 26.8006L9.8993 26.983L9.88442 27.1654L9.87142 27.348L9.8603 27.5306L9.85105 27.7131L9.84368 27.8957L9.83818 28.0782L9.83456 28.2607L9.8328 28.4431L9.83292 28.6255L9.8349 28.8077L9.83875 28.9899L9.84446 29.1719L9.85203 29.3537L9.86147 29.5354L9.87275 29.7168L9.88589 29.8981L9.90088 30.0791L9.91772 30.2599L9.93639 30.4405L9.95691 30.6207L9.97926 30.8007L10.0034 30.9803L10.0294 31.1596L10.0573 31.3386L10.0869 31.5171L10.1184 31.6953L10.1517 31.8731L10.1867 32.0504L10.2236 32.2274L10.2623 32.4038L10.3027 32.5798L10.345 32.7553L10.3889 32.9303L10.4347 33.1048L10.4823 33.2786L10.5315 33.452L10.5826 33.6248L10.6354 33.797L10.6899 33.9686L10.7461 34.1395L10.8041 34.3098L10.8638 34.4794L10.9251 34.6484L10.9882 34.8166L11.053 34.9842L11.1194 35.151L11.1875 35.3171L11.2573 35.4824L11.3288 35.6469L11.4018 35.8107L11.4766 35.9737L11.5529 36.1358L11.6309 36.2971L11.7105 36.4575L11.7916 36.6171L11.8744 36.7758L11.9587 36.9336L12.0447 37.0905L12.1321 37.2464L12.2211 37.4014L12.3117 37.5555L12.4038 37.7085L12.4974 37.8606L12.5925 38.0117L12.6891 38.1617L12.7872 38.3108L12.8868 38.4588L12.9878 38.6057L13.0902 38.7516L13.1942 38.8964L13.2995 39.0401L13.4063 39.1827L13.5144 39.3241L13.624 39.4644L13.7348 39.6035L13.8471 39.7415L13.9608 39.8784L14.0757 40.014L14.192 40.1484L14.3096 40.2816L14.4285 40.4136L14.5487 40.5443L14.6701 40.6738L14.7928 40.802L14.9168 40.929L15.042 41.0547L15.1684 41.179L15.2961 41.3021L15.4248 41.4238L15.5548 41.5443L15.686 41.6634L15.8183 41.7811L15.9516 41.8974L16.0862 42.0124L16.2219 42.126L16.3585 42.2382L16.4964 42.3491L16.6352 42.4584L16.7751 42.5664L16.916 42.673L17.058 42.7781L17.2009 42.8817L17.3448 42.9839L17.4896 43.0846L17.6355 43.1839L17.7822 43.2816L17.93 43.3779L18.0785 43.4727L18.228 43.5659L18.3784 43.6577L18.5295 43.7479L18.6816 43.8366L18.8344 43.9237L18.9881 44.0093L19.1425 44.0933L19.2978 44.1758L19.4537 44.2567L19.6104 44.3361L19.7679 44.4138L19.9261 44.49L20.0849 44.5646L20.2444 44.6376L20.4045 44.7089L20.5654 44.7787L20.7268 44.8468L20.8889 44.9134L21.0515 44.9783L21.2147 45.0415L21.3785 45.1032L21.5427 45.1632L21.7075 45.2215L21.8729 45.2782L22.0387 45.3333L22.205 45.3867L22.3716 45.4384L22.5389 45.4885L22.7064 45.5369L22.8744 45.5836L23.0428 45.6287L23.2115 45.6721L23.3806 45.7138L23.5499 45.7538L23.7197 45.7922L23.8897 45.8288L24.0599 45.8638L24.2305 45.8971L24.4013 45.9287L24.5723 45.9586L24.7435 45.9868L24.9149 46.0133L25.0865 46.0381L25.2583 46.0612L25.4301 46.0827L25.6021 46.1024L25.7742 46.1204L25.9464 46.1368L26.1187 46.1514L26.291 46.1644L26.4633 46.1756L26.6357 46.1852L26.808 46.193L26.9803 46.1992L27.1526 46.2037L27.3249 46.2064L27.497 46.2075L27.6691 46.2069L27.8411 46.2046L28.0129 46.2007L28.1846 46.195L28.3562 46.1877L28.5276 46.1787L28.6987 46.168L28.8697 46.1557L29.0405 46.1417L29.211 46.126L29.3812 46.1086L29.5512 46.0896L29.7208 46.069L29.8902 46.0467L30.0592 46.0227L30.2279 45.9971L30.3962 45.9699L30.5642 45.941L30.7318 45.9105L30.8989 45.8784L31.0656 45.8447L31.2319 45.8093L31.3977 45.7724L31.563 45.7338L31.7279 45.6936L31.8922 45.6519L32.056 45.6085L32.2192 45.5636L32.382 45.5171L32.5441 45.469L32.7057 45.4194L32.8666 45.3683L33.027 45.3155L33.1867 45.2613L33.3456 45.2055L33.5041 45.1481L33.6618 45.0893L33.8188 45.0289L33.9751 44.9671L34.1306 44.9038L34.2854 44.8389L34.4395 44.7726L34.5928 44.7048L34.7452 44.6356L34.897 44.5649L35.0479 44.4927L35.1979 44.4192L35.3472 44.3441L35.4955 44.2677L35.643 44.1899L35.7897 44.1106L35.9353 44.03L36.0801 43.948L36.2239 43.8647L36.367 43.7799L36.5088 43.6939L36.65 43.6064L36.7899 43.5177L36.9289 43.4276L37.067 43.3362L37.2041 43.2434L37.3399 43.1496L37.4748 43.0543L37.6087 42.9578L37.7415 42.8601L37.8733 42.761L38.0038 42.6609L38.1335 42.5593L38.2618 42.4567L38.389 42.3529L38.5153 42.2478L38.6403 42.1415L38.764 42.0342L38.8867 41.9256L39.0081 41.816L39.1284 41.7052L39.2475 41.5933L39.3652 41.4804L39.4819 41.3662L39.5973 41.251L39.7114 41.1348L39.8243 41.0175L39.9358 40.8993L40.046 40.7801L40.1552 40.6595L40.2628 40.5383L40.3693 40.4159L40.4743 40.2927L40.5781 40.1684L40.6805 40.0433L40.7815 39.9172L40.8813 39.7901L40.9796 39.6623L41.0767 39.5334L41.1722 39.4038L41.2665 39.2732L41.3595 39.1417L41.4507 39.0097L41.5408 38.8766L41.6293 38.7429L41.7165 38.6082L41.8024 38.4727L41.8866 38.3367L41.9694 38.1999L42.0509 38.062L42.1307 37.9239L42.2092 37.7848L42.2863 37.645L42.3617 37.5048L42.4358 37.3636L42.5084 37.2218L42.5793 37.0799L42.6489 36.9368L42.717 36.7932L42.7835 36.6492L42.8485 36.5046L42.912 36.3594L42.9739 36.2138L43.0344 36.0674L43.0933 35.9206L43.1506 35.7737L43.2064 35.6257L43.2606 35.4777L43.3134 35.329L43.3646 35.18L43.4142 35.0305L43.4621 34.881L43.5087 34.7304L43.5535 34.58L43.5968 34.4291L43.6386 34.278L43.6788 34.1263L43.7173 33.9746L43.7544 33.8224L43.7898 33.6699L43.8237 33.5173L43.856 33.3643L43.8866 33.2114L43.9157 33.0578L43.9432 32.9046L43.9691 32.7508L43.9934 32.5969L44.0161 32.443L44.0373 32.2888L44.0568 32.1348L44.0748 31.9801L44.0911 31.826L44.1059 31.6714L44.119 31.5171L44.1306 31.3623L44.1406 31.2081L44.149 31.0534L44.1558 30.8986L44.161 30.7442L44.1647 30.5901L44.1667 30.4354L44.1672 30.281L44.1661 30.1268L44.1634 29.9727L44.1591 29.8186L44.1532 29.6651L44.1458 29.511L44.1368 29.3576L44.1262 29.2042L44.1141 29.0513L44.1004 28.8981L44.0852 28.7456L44.0684 28.593L44.05 28.4409L44.0301 28.2889L44.0087 28.1374L43.9856 27.9858L43.9611 27.8349L43.9351 27.6845L43.9075 27.534L43.8783 27.384L43.8477 27.2346L43.8155 27.0851L43.782 26.9367L43.7467 26.7881L43.7102 26.6405L43.6719 26.4927L43.6323 26.346L43.5912 26.1995L43.5486 26.0533L43.5046 25.908L43.4591 25.7632L43.412 25.6185L43.3637 25.4749L43.3137 25.3314L43.2625 25.1888L43.2097 25.0465L43.1556 24.9052L43.0999 24.7641L43.0429 24.6238L42.9846 24.4844L42.9249 24.3456L42.8635 24.207L42.8012 24.0697L42.7371 23.9325L42.6719 23.7966L42.6053 23.6612L42.5372 23.5263L42.468 23.3925L42.3973 23.2593L42.3252 23.1267L42.2522 22.9954L42.1775 22.8644L42.1017 22.7345L42.0244 22.6052L41.9462 22.4772L41.8663 22.3495L41.7855 22.223L41.7032 22.0971L41.6198 21.9723L41.5353 21.8486L41.4493 21.7254L41.3622 21.6033L41.274 21.4821L41.1845 21.362L41.0939 21.2426L41.0021 21.1244L40.9092 21.007L40.8151 20.8907L40.7199 20.7754L40.6235 20.661L40.526 20.5477L40.4275 20.4354L40.328 20.3242L40.2273 20.214L40.1253 20.1047L40.0228 19.9969L39.9186 19.8897L39.8139 19.784L39.708 19.6791L39.6012 19.5755L39.493 19.4727L39.3844 19.3715L39.2744 19.2711L39.1635 19.1719L39.052 19.074L38.9394 18.9772L38.8255 18.8813L38.711 18.7868L38.5957 18.6935L38.4794 18.6014L38.3622 18.5104L38.2444 18.4209L38.1253 18.3321L38.0058 18.245L37.8853 18.159L37.7639 18.0741L37.642 17.9906L37.5188 17.9081L37.3956 17.8273L37.271 17.7474L37.146 17.6689L37.02 17.5916L36.8935 17.5156L36.7663 17.441L36.6386 17.3678L36.5097 17.2955L36.3808 17.2249L36.2508 17.1554L36.1203 17.0873L35.9893 17.0206L35.8575 16.9551L35.7252 16.8909L35.5924 16.8282L35.4589 16.7667L35.3251 16.7067L35.1906 16.6479L35.0513 16.5887L34.9203 16.5346L34.784 16.4798L34.6479 16.4267L34.5107 16.3746L34.3735 16.3242L34.2357 16.275L34.0976 16.2273L33.9589 16.1808L33.8201 16.1359L33.6807 16.0923L33.541 16.0501L33.4012 16.0094L33.2608 15.97L33.1199 15.9319L32.9792 15.8954L32.8382 15.8602L32.6963 15.8264L32.5549 15.7941L32.4128 15.7631L32.2707 15.7336L32.1281 15.7054L31.9857 15.6787L31.8429 15.6534L31.7002 15.6296L31.5568 15.6071L31.4138 15.5861L31.2705 15.5665L31.127 15.5483L30.9835 15.5315L30.84 15.5161L30.6964 15.5022L30.5527 15.4897L30.4089 15.4786L30.265 15.4689L30.1215 15.4606L29.9779 15.4538L29.8338 15.4483L29.6905 15.4443L29.5469 15.4417L29.4034 15.4405L29.2597 15.4407L29.2309 15.441L29.2762 19.2632L29.3577 19.2628L29.4626 19.2634L29.5675 19.265L29.6725 19.2677L29.7776 19.2714L29.8827 19.2762L29.9878 19.282L30.093 19.2888L30.1982 19.2967L30.3034 19.3056L30.4086 19.3156L30.5137 19.3266L30.6189 19.3387L30.724 19.3518L30.829 19.3659L30.934 19.3812L31.0389 19.3974L31.1437 19.4147L31.2485 19.4331L31.3531 19.4525L31.4576 19.473L31.562 19.4945L31.6663 19.517L31.7704 19.5406L31.8743 19.5653L31.9781 19.591L32.0816 19.6177L32.185 19.6455L32.2882 19.6743L32.3912 19.7042L32.494 19.7351L32.5965 19.767L32.6987 19.8L32.8007 19.834L32.9025 19.8691L33.0039 19.9052L33.1051 19.9423L33.2059 19.9804L33.3065 20.0196L33.4067 20.0598L33.5066 20.101L33.6061 20.1433L33.7053 20.1865L33.8041 20.2308L33.9025 20.276L34.0005 20.3223L34.0982 20.3696L34.1954 20.4179L34.2922 20.4672L34.3886 20.5175L34.4845 20.5687L34.58 20.621L34.675 20.6742L34.7695 20.7284L34.8636 20.7836L34.9572 20.8398L35.0502 20.8969L35.1427 20.955L35.2347 21.0141L35.3262 21.0741L35.4171 21.135L35.5075 21.1969L35.5973 21.2598L35.6865 21.3235L35.7751 21.3882L35.8631 21.4539L35.9506 21.5204L36.0373 21.5879L36.1235 21.6563L36.209 21.7255L36.2939 21.7957L36.3781 21.8668L36.4617 21.9387L36.5446 22.0115L36.6268 22.0852L36.7083 22.1598L36.789 22.2352L36.8691 22.3115L36.9484 22.3886L37.027 22.4666L37.1049 22.5454L37.182 22.6251L37.2584 22.7055L37.3339 22.7868L37.4087 22.8689L37.4827 22.9518L37.5559 23.0354L37.6283 23.1199L37.6999 23.2051L37.7707 23.2911L37.8406 23.3779L37.9097 23.4654L37.9779 23.5537L38.0453 23.6427L38.1118 23.7325L38.1774 23.8229L38.2422 23.9141L38.306 24.006L38.369 24.0986L38.431 24.1919L38.4921 24.2858L38.5523 24.3805L38.6116 24.4758L38.67 24.5717L38.7274 24.6683L38.7838 24.7656L38.8393 24.8634L38.8938 24.9619L38.9473 25.061L38.9999 25.1607L39.0515 25.261L39.102 25.3619L39.1516 25.4634L39.2002 25.5654L39.2477 25.6679L39.2942 25.7711L39.3397 25.8747L39.3842 25.9789L39.4276 26.0836L39.47 26.1888L39.5113 26.2945L39.5515 26.4006L39.5907 26.5073L39.6288 26.6144L39.6659 26.722L39.7019 26.83L39.7367 26.9385L39.7705 27.0473L39.8032 27.1566L39.8348 27.2663L39.8653 27.3764L39.8946 27.4869L39.9229 27.5977L39.95 27.7089L39.976 27.8204L40.0009 27.9323L40.0246 28.0445L40.0472 28.157L40.0686 28.2698L40.0889 28.383L40.1081 28.4964L40.1261 28.61L40.1429 28.724L40.1586 28.8381L40.1731 28.9525L40.1865 29.0672L40.1986 29.1821L40.2096 29.2971L40.2195 29.4124L40.2281 29.5278L40.2356 29.6434L40.2418 29.7591L40.2469 29.875L40.2508 29.9911L40.2535 30.1072L40.255 30.2235L40.2553 30.3399L40.2544 30.4563L40.2523 30.5728L40.249 30.6894L40.2445 30.8061L40.2388 30.9227L40.2319 31.0394L40.2238 31.1562L40.2145 31.2729L40.2039 31.3896L40.1922 31.5063L40.1792 31.6229L40.1651 31.7396L40.1497 31.8561L40.1331 31.9726L40.1153 32.089L40.0963 32.2053L40.0761 32.3215L40.0546 32.4376L40.032 32.5536L40.0081 32.6694L39.983 32.7851L39.9568 32.9006L39.9293 33.0159L39.9006 33.131L39.8707 33.246L39.8396 33.3607L39.8073 33.4752L39.7738 33.5894L39.7391 33.7034L39.7032 33.8172L39.666 33.9307L39.6277 34.0438L39.5882 34.1567L39.5476 34.2693L39.5057 34.3815L39.4626 34.4934L39.4184 34.605L39.373 34.7162L39.3264 34.8271L39.2786 34.9375L39.2297 35.0476L39.1796 35.1573L39.1283 35.2665L39.0759 35.3753L39.0223 35.4837L38.9675 35.5916L38.9116 35.6991L38.8546 35.806L38.7964 35.9125L38.7371 36.0185L38.6767 36.124L38.6151 36.2289L38.5524 36.3334L38.4886 36.4372L38.4237 36.5406L38.3576 36.6433L38.2905 36.7455L38.2222 36.847L38.1529 36.948L38.0825 37.0484L38.011 37.1481L37.9384 37.2472L37.8648 37.3457L37.7901 37.4435L37.7143 37.5406L37.6375 37.637L37.5596 37.7328L37.4807 37.8278L37.4008 37.9222L37.3198 38.0158L37.2378 38.1087L37.1548 38.2008L37.0708 38.2922L36.9858 38.3828L36.8999 38.4727L36.8129 38.5617L36.725 38.65L36.636 38.7374L36.5462 38.8241L36.4553 38.9099L36.3636 38.9948L36.2709 39.079L36.1772 39.1622L36.0827 39.2446L35.9872 39.3262L35.8909 39.4068L35.7936 39.4866L35.6955 39.5654L35.5964 39.6433L35.4965 39.7203L35.3958 39.7964L35.2942 39.8715L35.1917 39.9457L35.0885 40.019L34.9844 40.0912L34.8795 40.1625L34.7737 40.2328L34.6672 40.3021L34.5599 40.3704L34.4519 40.4377L34.343 40.5039L34.2335 40.5692L34.1231 40.6334L34.0121 40.6965L33.9003 40.7586L33.7878 40.8197L33.6746 40.8797L33.5607 40.9386L33.4461 40.9964L33.3309 41.0531L33.215 41.1088L33.0984 41.1633L32.9812 41.2167L32.8634 41.269L32.745 41.3202L32.6259 41.3702L32.5063 41.4191L32.3861 41.4669L32.2653 41.5135L32.144 41.559L32.0221 41.6033L31.8997 41.6464L31.7767 41.6883L31.6533 41.7291L31.5293 41.7686L31.4049 41.807L31.28 41.8442L31.1546 41.8801L31.0288 41.9149L30.9025 41.9484L30.7758 41.9807L30.6487 42.0118L30.5212 42.0417L30.3932 42.0703L30.265 42.0977L30.1363 42.1238L30.0073 42.1487L29.878 42.1724L29.7483 42.1948L29.6183 42.2159L29.4881 42.2357L29.3575 42.2543L29.2266 42.2716L29.0955 42.2877L28.9642 42.3024L28.8326 42.3159L28.7008 42.3281L28.5688 42.339L28.4366 42.3486L28.3042 42.3569L28.1716 42.3639L28.0389 42.3696L27.906 42.374L27.773 42.3771L27.6399 42.3789L27.5066 42.3794L27.3733 42.3786L27.24 42.3764L27.1065 42.373L26.973 42.3682L26.8395 42.3621L26.7059 42.3547L26.5724 42.346L26.4388 42.336L26.3053 42.3246L26.1718 42.3119L26.0383 42.2979L25.9049 42.2826L25.7716 42.266L25.6383 42.248L25.5052 42.2287L25.3722 42.2081L25.2393 42.1862L25.1065 42.1629L24.9739 42.1384L24.8415 42.1125L24.7093 42.0852L24.5772 42.0567L24.4454 42.0269L24.3138 41.9957L24.1824 41.9632L24.0513 41.9294L23.9204 41.8943L23.7898 41.8579L23.6596 41.8202L23.5296 41.7812L23.3999 41.7409L23.2706 41.6992L23.1417 41.6563L23.013 41.6121L22.8848 41.5666L22.757 41.5198L22.6295 41.4717L22.5025 41.4223L22.3759 41.3717L22.2497 41.3197L22.124 41.2665L21.9988 41.2121L21.8741 41.1563L21.7498 41.0993L21.6261 41.0411L21.5029 40.9816L21.3802 40.9208L21.258 40.8588L21.1365 40.7956L21.0155 40.7311L20.8951 40.6654L20.7753 40.5985L20.6561 40.5303L20.5375 40.461L20.4196 40.3904L20.3023 40.3186L20.1857 40.2457L20.0698 40.1715L19.9546 40.0962L19.8401 40.0196L19.7263 39.9419L19.6132 39.8631L19.5009 39.7831L19.3893 39.7019L19.2785 39.6196L19.1684 39.5361L19.0592 39.4515L18.9508 39.3658L18.8432 39.2789L18.7364 39.191L18.6304 39.1019L18.5253 39.0118L18.4211 38.9205L18.3177 38.8282L18.2152 38.7348L18.1137 38.6404L18.013 38.5449L17.9132 38.4483L17.8144 38.3507L17.7166 38.2521L17.6197 38.1524L17.5237 38.0518L17.4287 37.9501L17.3348 37.8475L17.2418 37.7438L17.1498 37.6392L17.0589 37.5336L16.9689 37.4271L16.8801 37.3196L16.7922 37.2111L16.7055 37.1018L16.6198 36.9915L16.5352 36.8803L16.4517 36.7682L16.3692 36.6553L16.2879 36.5414L16.2078 36.4267L16.1287 36.3111L16.0508 36.1947L15.9741 36.0775L15.8985 35.9594L15.824 35.8405L15.7508 35.7208L15.6787 35.6003L15.6079 35.4791L15.5382 35.357L15.4698 35.2343L15.4025 35.1107L15.3366 34.9865L15.2718 34.8615L15.2083 34.7358L15.146 34.6094L15.085 34.4823L15.0253 34.3546L14.9669 34.2261L14.9097 34.0971L14.8539 33.9674L14.7993 33.837L14.746 33.7061L14.6941 33.5746L14.6435 33.4424L14.5942 33.3097L14.5463 33.1765L14.4996 33.0426L14.4544 32.9083L14.4105 32.7734L14.3679 32.638L14.3267 32.5022L14.2869 32.3658L14.2485 32.229L14.2114 32.0917L14.1758 31.9539L14.1415 31.8158L14.1087 31.6772L14.0772 31.5382L14.0472 31.3988L14.0185 31.2591L13.9913 31.119L13.9655 30.9785L13.9412 30.8377L13.9183 30.6966L13.8968 30.5552L13.8767 30.4135L13.8581 30.2715L13.841 30.1292L13.8253 29.9867L13.811 29.844L13.7982 29.701L13.7869 29.5578L13.7771 29.4145L13.7687 29.2709L13.7617 29.1272L13.7563 28.9834L13.7523 28.8394L13.7498 28.6953L13.7488 28.551L13.7493 28.4067L13.7512 28.2623L13.7546 28.1179L13.7596 27.9734L13.766 27.8288L13.7739 27.6843L13.7832 27.5397L13.7941 27.3952L13.8065 27.2506L13.8203 27.1062L13.8357 26.9617L13.8525 26.8174L13.8709 26.6731L13.8907 26.5289L13.912 26.3848L13.9349 26.2409L13.9591 26.0971L13.985 25.9535L14.0122 25.81L14.041 25.6667L14.0713 25.5237L14.103 25.3808L14.1363 25.2382L14.171 25.0958L14.2072 24.9537L14.2449 24.8119L14.284 24.6703L14.3247 24.5291L14.3668 24.3882L14.4104 24.2476L14.4555 24.1073L14.502 23.9675L14.5499 23.828L14.5994 23.6889L14.6503 23.5502L14.7027 23.4119L14.7564 23.2741L14.8117 23.1367L14.8684 22.9998L14.9265 22.8634L14.9861 22.7274L15.0471 22.592L15.1095 22.4571L15.1733 22.3227L15.2386 22.1889L15.3053 22.0557L15.3733 21.923L15.4428 21.791L15.5136 21.6595L15.5859 21.5287L15.6595 21.3985L15.7346 21.2689L15.811 21.1401L15.8887 21.0119L15.9678 20.8844L16.0483 20.7576L16.1301 20.6315L16.2133 20.5062L16.2977 20.3816L16.3836 20.2578L16.4707 20.1347L16.5591 20.0124L16.6489 19.891L16.7399 19.7703L16.8323 19.6505L16.9259 19.5315L17.0208 19.4134L17.1169 19.2962L17.2143 19.1798L17.313 19.0643L17.4129 18.9497L17.514 18.8361L17.6164 18.7234L17.7199 18.6116L17.8247 18.5008L17.9307 18.3909L18.0378 18.2821L18.1461 18.1742L18.2556 18.0673L18.3663 17.9615L18.4781 17.8566L18.591 17.7529L18.7051 17.6501L18.8203 17.5485L18.9365 17.4479L19.0539 17.3484L19.1724 17.25L19.2919 17.1527L19.4125 17.0565L19.5342 16.9615L19.6569 16.8676L19.7806 16.7749L19.9054 16.6833L20.0311 16.5929L20.1578 16.5037L20.2856 16.4157L20.4143 16.3289L20.5439 16.2434L20.6746 16.159L20.8061 16.0759L20.9386 15.994L21.072 15.9134L21.2063 15.8341L21.3414 15.756L21.4775 15.6792L21.6144 15.6038L21.7521 15.5296L21.8907 15.4567L22.0301 15.3852L22.1703 15.315L22.3113 15.2461L22.4531 15.1786L22.5957 15.1124L22.739 15.0476L22.8831 14.9842L23.0279 14.9222L23.1734 14.8615L23.3196 14.8022L23.4664 14.7444L23.614 14.688L23.7622 14.6329L23.9111 14.5794L24.0606 14.5272L24.2107 14.4765L24.3614 14.4272L24.5126 14.3794L24.6645 14.333L24.8169 14.2881L24.9699 14.2447L25.1233 14.2028L25.2773 14.1623L25.4318 14.1234L25.5868 14.0859L25.7422 14.05L25.8981 14.0155L26.0544 13.9826L26.2111 13.9511L26.3683 13.9213L26.5258 13.8929L26.6837 13.866L26.842 13.8408L27.0006 13.817L27.1595 13.7948L27.3187 13.7741L27.3781 13.767ZM27.4453 19.4361L27.3995 15.5719L27.269 15.5901L27.1287 15.6112L26.9883 15.6336L26.8488 15.6573L26.7091 15.6825L26.5701 15.7089L26.4314 15.7367L26.2932 15.7658L26.1553 15.7963L26.0177 15.8282L25.8805 15.8613L25.7439 15.8958L25.6074 15.9316L25.4763 15.9674L25.3366 16.0071L25.2017 16.0468L25.0674 16.0878L24.9338 16.13L24.8005 16.1736L24.6677 16.2185L24.5355 16.2646L24.404 16.3119L24.273 16.3606L24.1426 16.4104L24.0127 16.4616L23.8838 16.5139L23.7549 16.5676L23.627 16.6224L23.4997 16.6784L23.3733 16.7356L23.2472 16.7941L23.1218 16.8538L22.9975 16.9145L22.8734 16.9766L22.7506 17.0397L22.628 17.1042L22.5066 17.1695L22.3854 17.2364L22.2654 17.304L22.1462 17.3729L22.0276 17.443L21.9099 17.5141L21.7928 17.5865L21.6769 17.6597L21.5615 17.7342L21.4472 17.8097L21.3337 17.8862L21.221 17.9639L21.109 18.0427L20.9983 18.1222L20.8882 18.2031L20.779 18.2849L20.6708 18.3677L20.5636 18.4514L20.4571 18.5363L20.3518 18.622L20.2474 18.7087L20.1438 18.7966L20.0415 18.8851L19.9399 18.9748L19.8393 19.0654L19.7398 19.1568L19.6414 19.2491L19.5437 19.3425L19.4474 19.4365L19.352 19.5315L19.2575 19.6275L19.1642 19.7242L19.0719 19.8219L18.9807 19.9203L18.8906 20.0195L18.8015 20.1196L18.7134 20.2206L18.6268 20.3221L18.541 20.4246L18.4563 20.5279L18.3728 20.6318L18.2905 20.7364L18.2091 20.842L18.129 20.9481L18.05 21.055L17.9722 21.1626L17.8955 21.2709L17.8201 21.3797L17.7458 21.4893L17.6726 21.5996L17.6006 21.7105L17.5299 21.8219L17.4604 21.934L17.392 22.0469L17.3248 22.1601L17.2589 22.274L17.1941 22.3885L17.1307 22.5033L17.0684 22.6189L17.0072 22.7351L16.9475 22.8515L16.8889 22.9687L16.8316 23.0863L16.7755 23.2042L16.7207 23.3228L16.6671 23.4417L16.6148 23.5611L16.5637 23.6809L16.514 23.8011L16.4655 23.9217L16.4182 24.0428L16.3722 24.1642L16.3276 24.2859L16.2841 24.4081L16.2421 24.5304L16.2012 24.6532L16.1617 24.7763L16.1234 24.8997L16.0865 25.0233L16.0508 25.1472L16.0165 25.2713L15.9834 25.3958L15.9516 25.5204L15.9212 25.6453L15.8921 25.7704L15.8642 25.8956L15.8377 26.0211L15.8125 26.1467L15.7885 26.2724L15.7659 26.3984L15.7446 26.5244L15.7246 26.6506L15.7059 26.7767L15.6885 26.9031L15.6725 27.0295L15.6577 27.156L15.6443 27.2825L15.6321 27.4091L15.6213 27.5357L15.6118 27.6622L15.6036 27.7889L15.5966 27.9155L15.591 28.042L15.5867 28.1685L15.5837 28.2949L15.582 28.4213L15.5816 28.5477L15.5825 28.6739L15.5847 28.8L15.5882 28.926L15.5929 29.0518L15.599 29.1776L15.6063 29.3032L15.615 29.4285L15.6249 29.5538L15.636 29.6788L15.6485 29.8036L15.6622 29.9282L15.6772 30.0526L15.6935 30.1768L15.711 30.3006L15.7298 30.4243L15.7498 30.5475L15.7711 30.6706L15.7937 30.7934L15.8174 30.9157L15.8425 31.0379L15.8687 31.1596L15.8962 31.2811L15.9249 31.402L15.9548 31.5227L15.9859 31.643L16.0183 31.7629L16.0518 31.8823L16.0866 32.0014L16.1225 32.12L16.1597 32.2382L16.198 32.356L16.2375 32.4732L16.2782 32.5899L16.32 32.7062L16.363 32.822L16.4072 32.9373L16.4525 33.052L16.4989 33.1662L16.5465 33.2799L16.5952 33.393L16.6451 33.5055L16.696 33.6175L16.7481 33.7288L16.8013 33.8396L16.8555 33.9498L16.9109 34.0593L16.9673 34.1683L17.0248 34.2766L17.0834 34.3842L17.143 34.4912L17.2037 34.5975L17.2654 34.7031L17.3282 34.808L17.392 34.9123L17.4568 35.0158L17.5226 35.1186L17.5895 35.2208L17.6572 35.322L17.7261 35.4227L17.7958 35.5225L17.8666 35.6216L17.9383 35.7199L18.011 35.8174L18.0846 35.9141L18.1592 36.0101L18.2346 36.1052L18.311 36.1995L18.3883 36.293L18.4665 36.3857L18.5456 36.4774L18.6256 36.5685L18.7064 36.6585L18.7881 36.7478L18.8706 36.8361L18.954 36.9236L19.0382 37.0102L19.1233 37.0959L19.2091 37.1807L19.2958 37.2646L19.3833 37.3476L19.4714 37.4296L19.5605 37.5108L19.6502 37.5909L19.7407 37.6701L19.832 37.7484L19.924 37.8257L20.0167 37.9021L20.1101 37.9774L20.2042 38.0518L20.299 38.1252L20.3945 38.1977L20.4907 38.2691L20.5874 38.3395L20.6848 38.4089L20.7829 38.4773L20.8816 38.5447L20.981 38.6111L21.0809 38.6764L21.1814 38.7407L21.2825 38.804L21.3841 38.8662L21.4863 38.9274L21.5891 38.9875L21.6923 39.0465L21.7962 39.1045L21.9004 39.1614L22.0053 39.2173L22.1106 39.2721L22.2163 39.3257L22.3226 39.3784L22.4294 39.4299L22.5365 39.4804L22.644 39.5297L22.7521 39.578L22.8604 39.6251L22.9692 39.6711L23.0784 39.7161L23.188 39.7599L23.2978 39.8026L23.4081 39.8442L23.5187 39.8847L23.6296 39.9241L23.7408 39.9623L23.8524 39.9995L23.9642 40.0354L24.0763 40.0703L24.1887 40.104L24.3013 40.1366L24.4141 40.1681L24.5272 40.1984L24.6405 40.2277L24.754 40.2557L24.8677 40.2826L24.9816 40.3084L25.0957 40.3331L25.2099 40.3566L25.3242 40.3789L25.4388 40.4001L25.5533 40.4202L25.6681 40.4392L25.7829 40.4569L25.8978 40.4736L26.0128 40.4891L26.1278 40.5035L26.2429 40.5167L26.358 40.5288L26.4732 40.5397L26.5884 40.5495L26.7036 40.5581L26.8188 40.5657L26.9339 40.572L27.049 40.5773L27.1642 40.5814L27.2792 40.5844L27.3941 40.5862L27.509 40.5869L27.6238 40.5865L27.7385 40.5849L27.8531 40.5823L27.9675 40.5785L28.0819 40.5736L28.196 40.5675L28.31 40.5604L28.4238 40.5521L28.5375 40.5427L28.6509 40.5322L28.7642 40.5206L28.8773 40.5079L28.9901 40.4941L29.1027 40.4792L29.215 40.4633L29.3271 40.4462L29.4389 40.428L29.5503 40.4088L29.6616 40.3884L29.7725 40.367L29.8831 40.3446L29.9935 40.321L30.1033 40.2964L30.2129 40.2708L30.3221 40.244L30.431 40.2163L30.5395 40.1875L30.6476 40.1576L30.7553 40.1267L30.8626 40.0948L30.9694 40.0619L31.0758 40.0279L31.1819 39.9929L31.2874 39.9569L31.3925 39.9199L31.4971 39.8819L31.6012 39.8429L31.7048 39.8029L31.8079 39.7619L31.9106 39.7199L32.0127 39.677L32.1142 39.6331L32.2153 39.5883L32.3157 39.5425L32.4157 39.4957L32.5151 39.448L32.6137 39.3995L32.7121 39.3498L32.8096 39.2994L32.9067 39.2479L33.0029 39.1957L33.0987 39.1425L33.1939 39.0884L33.2883 39.0334L33.3822 38.9775L33.4754 38.9208L33.5678 38.8632L33.6598 38.8047L33.7508 38.7455L33.8413 38.6853L33.9312 38.6242L34.0202 38.5624L34.1084 38.4999L34.1962 38.4363L34.283 38.3722L34.3692 38.3071L34.4547 38.2412L34.5391 38.1747L34.6232 38.1072L34.7064 38.039L34.7885 37.9702L34.8703 37.9003L34.951 37.83L35.0309 37.759L35.1103 37.6869L35.1885 37.6145L35.2661 37.5412L35.3429 37.4672L35.4187 37.3926L35.4938 37.3172L35.5681 37.2412L35.6415 37.1645L35.7139 37.0872L35.7856 37.0092L35.8565 36.9306L35.9263 36.8515L35.9955 36.7715L36.0636 36.6911L36.1308 36.6101L36.1973 36.5283L36.2627 36.4463L36.3273 36.3634L36.391 36.2801L36.4538 36.1961L36.5156 36.1117L36.5764 36.0269L36.6365 35.9412L36.6955 35.8553L36.7536 35.7688L36.8109 35.6817L36.8669 35.5944L36.9223 35.5064L36.9766 35.4179L37.03 35.3291L37.0823 35.2398L37.1339 35.1499L37.1842 35.06L37.2338 34.9692L37.2823 34.8783L37.3297 34.787L37.3764 34.695L37.4218 34.6032L37.4665 34.5104L37.5099 34.4179L37.5527 34.3244L37.5941 34.2311L37.6348 34.137L37.6744 34.043L37.7129 33.9486L37.7505 33.8538L37.7871 33.7587L37.8225 33.6636L37.8572 33.5679L37.8906 33.4721L37.9231 33.3761L37.9546 33.2798L37.9851 33.1832L38.0146 33.0865L38.043 32.9897L38.0704 32.8925L38.0967 32.7953L38.1221 32.6978L38.1464 32.6002L38.1697 32.5026L38.192 32.4045L38.2132 32.3065L38.2335 32.2084L38.2526 32.1103L38.2708 32.012L38.2879 31.9133L38.304 31.815L38.3191 31.7164L38.3331 31.6177L38.3461 31.5192L38.3581 31.4205L38.3691 31.3215L38.379 31.2232L38.388 31.1241L38.3959 31.0254L38.4027 30.9269L38.4086 30.8281L38.4134 30.7295L38.4172 30.631L38.42 30.5322L38.4217 30.434L38.4225 30.3354L38.4222 30.2371L38.421 30.1388L38.4187 30.0409L38.4154 29.9428L38.4111 29.8449L38.4058 29.7474L38.3995 29.6496L38.3922 29.5521L38.384 29.4551L38.3747 29.3578L38.3644 29.2611L38.3531 29.1642L38.3409 29.0678L38.3277 28.9715L38.3135 28.8753L38.2983 28.7795L38.2822 28.684L38.2651 28.5887L38.247 28.4937L38.2279 28.3986L38.2079 28.3042L38.187 28.2101L38.1651 28.1161L38.1422 28.0223L38.1185 27.9293L38.0937 27.836L38.0681 27.7435L38.0415 27.6511L38.014 27.5593L37.9856 27.4676L37.9562 27.3763L37.926 27.2856L37.8949 27.1952L37.8627 27.1049L37.8299 27.0154L37.796 26.9261L37.7613 26.8374L37.7257 26.7489L37.6892 26.6608L37.6519 26.5735L37.6136 26.4863L37.5746 26.3998L37.5347 26.3138L37.4939 26.228L37.4522 26.1427L37.4099 26.0582L37.3665 25.9739L37.3225 25.8904L37.2776 25.8074L37.2318 25.7245L37.1854 25.6426L37.138 25.561L37.0899 25.4801L37.0409 25.3995L36.9914 25.3198L36.9408 25.2403L36.8897 25.1617L36.8377 25.0836L36.785 25.0061L36.7314 24.929L36.6772 24.8527L36.6224 24.7771L36.5666 24.7018L36.5103 24.6274L36.4531 24.5535L36.3955 24.4804L36.3369 24.4077L36.2777 24.3358L36.2178 24.2645L36.1573 24.1938L36.0962 24.124L36.0342 24.0546L35.9718 23.9861L35.9086 23.9181L35.845 23.8511L35.7804 23.7844L35.7155 23.7187L35.6497 23.6534L35.5835 23.5891L35.5168 23.5255L35.4494 23.4625L35.3813 23.4002L35.3127 23.3388L35.2436 23.2781L35.1737 23.2179L35.1038 23.1589L35.0329 23.1002L34.9616 23.0425L34.8898 22.9856L34.8174 22.9292L34.7446 22.8738L34.6715 22.8193L34.5975 22.7653L34.523 22.712L34.4485 22.6599L34.373 22.6082L34.2976 22.5577L34.2215 22.5077L34.1449 22.4585L34.0678 22.4101L33.9906 22.3627L33.9126 22.3159L33.8345 22.2701L33.7557 22.2249L33.677 22.1808L33.5976 22.1374L33.5178 22.0947L33.4377 22.0529L33.3574 22.0121L33.2766 21.9719L33.1954 21.9326L33.1141 21.8942L33.0326 21.8567L32.9502 21.8198L32.8682 21.784L32.7856 21.749L32.7026 21.7147L32.6195 21.6814L32.5363 21.649L32.4527 21.6174L32.3686 21.5865L32.2847 21.5567L32.2003 21.5276L32.1157 21.4994L32.0312 21.4721L31.9463 21.4457L31.8614 21.4201L31.7758 21.3953L31.6905 21.3715L31.605 21.3485L31.5193 21.3264L31.4335 21.3051L31.3473 21.2847L31.2613 21.2652L31.1753 21.2466L31.0889 21.2288L31.0023 21.2118L30.9162 21.1959L30.8295 21.1807L30.743 21.1664L30.6561 21.1529L30.5697 21.1404L30.4826 21.1286L30.3961 21.1179L30.3093 21.1079L30.2225 21.0988L30.1358 21.0906L30.0489 21.0832L29.9624 21.0767L29.8754 21.0711L29.7888 21.0663L29.7024 21.0624L29.6154 21.0593L29.5291 21.0571L29.4427 21.0558L29.3564 21.0553L29.2974 21.0555L29.3421 24.8309L29.3688 24.831L29.4184 24.8317L29.4681 24.8329L29.5179 24.8345L29.5677 24.8368L29.6176 24.8395L29.6675 24.8427L29.7175 24.8465L29.7675 24.8508L29.8176 24.8556L29.8677 24.8609L29.9178 24.8667L29.968 24.8731L30.0181 24.88L30.0683 24.8874L30.1185 24.8954L30.1687 24.9039L30.2188 24.9129L30.269 24.9225L30.3191 24.9325L30.3692 24.9432L30.4193 24.9543L30.4694 24.966L30.5193 24.9782L30.5693 24.9909L30.6192 25.0042L30.669 25.018L30.7188 25.0323L30.7685 25.0472L30.8181 25.0626L30.8676 25.0786L30.9171 25.0951L30.9664 25.1121L31.0157 25.1296L31.0648 25.1477L31.1138 25.1663L31.1627 25.1854L31.2115 25.2051L31.2601 25.2253L31.3086 25.246L31.357 25.2673L31.4052 25.2891L31.4533 25.3114L31.5012 25.3343L31.5489 25.3576L31.5965 25.3815L31.6438 25.406L31.691 25.4309L31.738 25.4564L31.7848 25.4824L31.8314 25.5089L31.8778 25.5359L31.9239 25.5634L31.9699 25.5915L32.0156 25.6201L32.0611 25.6492L32.1063 25.6787L32.1513 25.7088L32.1961 25.7395L32.2406 25.7706L32.2848 25.8022L32.3288 25.8343L32.3725 25.8669L32.4159 25.9L32.459 25.9336L32.5019 25.9677L32.5444 26.0023L32.5866 26.0373L32.6286 26.0729L32.6702 26.1089L32.7115 26.1454L32.7525 26.1824L32.7931 26.2199L32.8334 26.2578L32.8733 26.2962L32.913 26.3351L32.9522 26.3744L32.9911 26.4142L33.0297 26.4544L33.0678 26.4951L33.1056 26.5363L33.143 26.5779L33.1801 26.6199L33.2167 26.6624L33.2529 26.7053L33.2888 26.7486L33.3242 26.7924L33.3592 26.8366L33.3938 26.8812L33.428 26.9263L33.4618 26.9717L33.4951 27.0176L33.5279 27.0638L33.5604 27.1105L33.5924 27.1576L33.6239 27.2051L33.655 27.2529L33.6857 27.3012L33.7158 27.3498L33.7455 27.3988L33.7747 27.4482L33.8034 27.4979L33.8317 27.548L33.8594 27.5985L33.8867 27.6493L33.9135 27.7005L33.9397 27.752L33.9655 27.8038L33.9907 27.856L34.0154 27.9086L34.0396 27.9614L34.0633 28.0146L34.0865 28.0681L34.1091 28.1219L34.1312 28.176L34.1527 28.2304L34.1737 28.2851L34.1942 28.3401L34.2141 28.3954L34.2334 28.451L34.2522 28.5068L34.2704 28.5629L34.288 28.6193L34.3051 28.6759L34.3216 28.7328L34.3375 28.79L34.3529 28.8473L34.3677 28.9049L34.3818 28.9628L34.3954 29.0209L34.4084 29.0791L34.4208 29.1377L34.4326 29.1964L34.4437 29.2552L34.4543 29.3144L34.4643 29.3737L34.4737 29.4331L34.4824 29.4928L34.4905 29.5526L34.498 29.6126L34.5049 29.6728L34.5112 29.7331L34.5168 29.7935L34.5218 29.8541L34.5262 29.9149L34.5299 29.9757L34.533 30.0367L34.5354 30.0978L34.5373 30.159L34.5384 30.2203L34.539 30.2817L34.5388 30.3431L34.5381 30.4047L34.5367 30.4664L34.5346 30.5281L34.5319 30.5899L34.5285 30.6517L34.5245 30.7136L34.5198 30.7755L34.5144 30.8375L34.5084 30.8995L34.5018 30.9615L34.4944 31.0235L34.4864 31.0856L34.4778 31.1477L34.4685 31.2097L34.4585 31.2717L34.4478 31.3337L34.4365 31.3957L34.4245 31.4577L34.4119 31.5196L34.3985 31.5815L34.3845 31.6433L34.3699 31.7051L34.3545 31.7668L34.3385 31.8285L34.3219 31.89L34.3045 31.9515L34.2865 32.0128L34.2678 32.0741L34.2485 32.1353L34.2285 32.1963L34.2078 32.2573L34.1865 32.3181L34.1644 32.3787L34.1417 32.4393L34.1184 32.4996L34.0944 32.5599L34.0697 32.6199L34.0444 32.6798L34.0184 32.7395L33.9917 32.7991L33.9644 32.8584L33.9364 32.9175L33.9077 32.9765L33.8785 33.0352L33.8485 33.0937L33.8179 33.152L33.7866 33.21L33.7547 33.2678L33.7222 33.3254L33.689 33.3827L33.6551 33.4398L33.6207 33.4965L33.5855 33.5531L33.5498 33.6093L33.5134 33.6652L33.4763 33.7209L33.4387 33.7762L33.4004 33.8313L33.3615 33.886L33.3219 33.9404L33.2818 33.9945L33.241 34.0482L33.1996 34.1016L33.1576 34.1547L33.115 34.2074L33.0718 34.2597L33.028 34.3117L32.9836 34.3633L32.9385 34.4145L32.8929 34.4653L32.8467 34.5158L32.7999 34.5658L32.7526 34.6154L32.7046 34.6647L32.6561 34.7135L32.607 34.7618L32.5574 34.8098L32.5071 34.8573L32.4563 34.9043L32.405 34.9509L32.3531 34.9971L32.3007 35.0428L32.2477 35.088L32.1942 35.1327L32.1401 35.177L32.0855 35.2208L32.0304 35.264L31.9748 35.3068L31.9187 35.3491L31.862 35.3909L31.8049 35.4321L31.7472 35.4728L31.6891 35.5131L31.6304 35.5527L31.5713 35.5919L31.5117 35.6304L31.4516 35.6685L31.391 35.706L31.33 35.7429L31.2685 35.7792L31.2066 35.815L31.1442 35.8502L31.0813 35.8848L31.0181 35.9189L30.9544 35.9523L30.8903 35.9852L30.8257 36.0174L30.7608 36.0491L30.6954 36.0801L30.6296 36.1105L30.5635 36.1403L30.4969 36.1694L30.43 36.198L30.3627 36.2259L30.295 36.2531L30.2269 36.2797L30.1585 36.3057L30.0897 36.331L30.0206 36.3557L29.9512 36.3797L29.8814 36.403L29.8113 36.4257L29.7409 36.4476L29.6702 36.4689L29.5991 36.4896L29.5278 36.5095L29.4562 36.5288L29.3843 36.5473L29.3121 36.5652L29.2396 36.5823L29.1669 36.5988L29.0939 36.6145L29.0207 36.6296L28.9472 36.6439L28.8735 36.6575L28.7996 36.6704L28.7254 36.6826L28.6511 36.694L28.5765 36.7047L28.5018 36.7147L28.4268 36.724L28.3517 36.7325L28.2764 36.7402L28.2009 36.7473L28.1253 36.7535L28.0495 36.7591L27.9735 36.7638L27.8975 36.7679L27.8213 36.7712L27.745 36.7737L27.6685 36.7754L27.592 36.7764L27.5154 36.7767L27.4387 36.7762L27.3619 36.7749L27.285 36.7728L27.2081 36.77L27.1311 36.7664L27.054 36.762L26.9769 36.7569L26.8998 36.751L26.8227 36.7443L26.7455 36.7368L26.6684 36.7286L26.5912 36.7195L26.5141 36.7097L26.4369 36.6991L26.3598 36.6878L26.2827 36.6756L26.2057 36.6627L26.1287 36.649L26.0518 36.6345L25.9749 36.6193L25.8981 36.6032L25.8214 36.5864L25.7448 36.5687L25.6683 36.5503L25.5918 36.5312L25.5155 36.5112L25.4394 36.4904L25.3633 36.4689L25.2875 36.4466L25.2117 36.4235L25.1361 36.3996L25.0607 36.375L24.9854 36.3496L24.9104 36.3234L24.8355 36.2964L24.7608 36.2686L24.6864 36.2401L24.6121 36.2108L24.5381 36.1807L24.4643 36.1499L24.3908 36.1183L24.3175 36.0859L24.2444 36.0528L24.1717 36.0189L24.0991 35.9842L24.0269 35.9488L23.955 35.9126L23.8834 35.8757L23.8121 35.838L23.7411 35.7996L23.6704 35.7604L23.6001 35.7205L23.53 35.6798L23.4604 35.6384L23.3911 35.5963L23.3222 35.5534L23.2536 35.5098L23.1854 35.4655L23.1176 35.4204L23.0502 35.3746L22.9833 35.3281L22.9167 35.2809L22.8505 35.233L22.7848 35.1843L22.7195 35.135L22.6547 35.085L22.5903 35.0342L22.5264 34.9828L22.4629 34.9307L22.3999 34.8779L22.3374 34.8244L22.2754 34.7702L22.2139 34.7154L22.1529 34.6599L22.0924 34.6037L22.0324 34.5469L21.973 34.4894L21.914 34.4313L21.8557 34.3725L21.7979 34.3131L21.7406 34.253L21.6839 34.1924L21.6278 34.131L21.5723 34.0691L21.5173 34.0066L21.463 33.9434L21.4092 33.8797L21.356 33.8153L21.3035 33.7503L21.2516 33.6848L21.2003 33.6187L21.1496 33.552L21.0996 33.4847L21.0503 33.4169L21.0016 33.3485L20.9535 33.2795L20.9061 33.21L20.8594 33.14L20.8134 33.0694L20.7681 32.9983L20.7234 32.9267L20.6795 32.8546L20.6362 32.7819L20.5937 32.7088L20.5519 32.6351L20.5108 32.561L20.4704 32.4864L20.4308 32.4113L20.3919 32.3357L20.3537 32.2597L20.3163 32.1833L20.2797 32.1063L20.2438 32.029L20.2087 31.9512L20.1744 31.873L20.1408 31.7943L20.108 31.7153L20.076 31.6358L20.0448 31.556L20.0144 31.4757L19.9849 31.3951L19.9561 31.3141L19.9281 31.2328L19.9009 31.1511L19.8746 31.069L19.8491 30.9866L19.8244 30.9039L19.8005 30.8208L19.7775 30.7374L19.7554 30.6537L19.734 30.5697L19.7136 30.4854L19.694 30.4009L19.6752 30.316L19.6573 30.2309L19.6403 30.1455L19.6241 30.0599L19.6088 29.974L19.5944 29.8879L19.5809 29.8016L19.5682 29.715L19.5564 29.6283L19.5456 29.5413L19.5356 29.4542L19.5265 29.3668L19.5183 29.2793L19.511 29.1916L19.5046 29.1038L19.4991 29.0158L19.4945 28.9277L19.4908 28.8395L19.488 28.7511L19.4862 28.6626L19.4853 28.5741L19.4852 28.4854L19.4861 28.3966L19.488 28.3078L19.4907 28.2189L19.4944 28.1299L19.499 28.0409L19.5045 27.9519L19.5109 27.8628L19.5183 27.7737L19.5266 27.6846L19.5358 27.5955L19.546 27.5064L19.5571 27.4173L19.5691 27.3283L19.5821 27.2393L19.596 27.1503L19.6109 27.0614L19.6266 26.9725L19.6433 26.8837L19.661 26.795L19.6796 26.7064L19.6991 26.6179L19.7195 26.5295L19.7409 26.4413L19.7632 26.3531L19.7865 26.2651L19.8107 26.1773L19.8358 26.0896L19.8618 26.002L19.8888 25.9147L19.9167 25.8275L19.9455 25.7405L19.9753 25.6538L20.006 25.5672L20.0376 25.4809L20.0701 25.3948L20.1036 25.309L20.138 25.2234L20.1733 25.138L20.2095 25.053L20.2466 24.9682L20.2847 24.8837L20.3236 24.7995L20.3635 24.7156L20.4042 24.6321L20.4459 24.5488L20.4884 24.4659L20.5319 24.3834L20.5762 24.3012L20.6215 24.2194L20.6676 24.1379L20.7146 24.0568L20.7625 23.9762L20.8113 23.8959L20.8609 23.816L20.9115 23.7366L20.9629 23.6575L21.0151 23.5789L21.0682 23.5008L21.1222 23.4231L21.177 23.3459L21.2327 23.2692L21.2892 23.1929L21.3465 23.1171L21.4047 23.0419L21.4637 22.9671L21.5236 22.8929L21.5843 22.8191L21.6457 22.746L21.708 22.6733L21.7711 22.6012L21.835 22.5297L21.8997 22.4587L21.9652 22.3884L22.0315 22.3186L22.0986 22.2494L22.1664 22.1808L22.235 22.1128L22.3044 22.0454L22.3745 21.9787L22.4454 21.9126L22.517 21.8471L22.5893 21.7823L22.6624 21.7181L22.7363 21.6547L22.8108 21.5918L22.8861 21.5297L22.962 21.4683L23.0387 21.4075L23.116 21.3475L23.1941 21.2882L23.2728 21.2296L23.3522 21.1717L23.4323 21.1146L23.513 21.0582L23.5944 21.0025L23.6765 20.9476L23.7591 20.8935L23.8424 20.8402L23.9264 20.7876L24.0109 20.7358L24.0961 20.6848L24.1818 20.6346L24.2682 20.5852L24.3551 20.5366L24.4426 20.4888L24.5307 20.4419L24.6193 20.3958L24.7085 20.3505L24.7982 20.3061L24.8885 20.2625L24.9793 20.2198L25.0706 20.1779L25.1624 20.1369L25.2547 20.0968L25.3476 20.0575L25.4409 20.0191L25.5346 19.9817L25.6289 19.9451L25.7236 19.9094L25.8187 19.8746L25.9143 19.8408L26.0104 19.8078L26.1068 19.7758L26.2037 19.7447L26.3009 19.7145L26.3986 19.6853L26.4966 19.657L26.595 19.6297L26.6938 19.6033L26.7929 19.5778L26.8924 19.5533L26.9922 19.5298L27.0924 19.5073L27.1928 19.4857L27.2936 19.4651L27.3946 19.4455L27.4453 19.4361ZM28.6872 26.6964L27.5346 26.9718L27.4669 21.2623L27.4126 21.2745L27.3308 21.2938L27.2491 21.3139L27.168 21.3347L27.087 21.3563L27.0065 21.3787L26.926 21.402L26.8463 21.4258L26.7664 21.4506L26.6875 21.4759L26.6084 21.5022L26.5298 21.5292L26.4516 21.5569L26.3737 21.5853L26.2965 21.6144L26.2194 21.6444L26.1427 21.675L26.0665 21.7063L25.9904 21.7385L25.9153 21.7711L25.8402 21.8047L25.7658 21.8388L25.6915 21.8738L25.6179 21.9093L25.5445 21.9456L25.4719 21.9825L25.3996 22.0201L25.3278 22.0584L25.2565 22.0973L25.1856 22.1369L25.1152 22.1772L25.0456 22.218L24.9759 22.2597L24.9071 22.3018L24.8389 22.3446L24.7711 22.388L24.7037 22.4321L24.637 22.4768L24.5708 22.5221L24.5051 22.5679L24.4401 22.6143L24.3754 22.6614L24.3114 22.7091L24.248 22.7573L24.1851 22.8061L24.1229 22.8553L24.0613 22.9052L24.0001 22.9557L23.9395 23.0068L23.8797 23.0582L23.8204 23.1103L23.7617 23.1628L23.7036 23.2159L23.6461 23.2696L23.5893 23.3237L23.5331 23.3782L23.4774 23.4334L23.4225 23.4889L23.3682 23.545L23.3146 23.6014L23.2614 23.6586L23.2091 23.7159L23.1574 23.7738L23.1063 23.8322L23.056 23.8908L23.0062 23.9501L22.9573 24.0095L22.9088 24.0697L22.8612 24.13L22.8141 24.1909L22.7678 24.2522L22.7222 24.3137L22.6772 24.3756L22.633 24.4379L22.5894 24.5007L22.5465 24.5637L22.5044 24.6272L22.463 24.6908L22.4223 24.7548L22.3822 24.8193L22.343 24.8839L22.3043 24.9491L22.2665 25.0142L22.2293 25.0799L22.1928 25.1458L22.1572 25.2119L22.1222 25.2783L22.088 25.345L22.0544 25.4121L22.0217 25.4791L21.9896 25.5467L21.9583 25.6143L21.9278 25.6822L21.8979 25.7503L21.8688 25.8187L21.8405 25.8871L21.8129 25.9559L21.7861 26.0248L21.7599 26.0939L21.7346 26.163L21.71 26.2325L21.6861 26.3021L21.663 26.3718L21.6406 26.4416L21.619 26.5117L21.5981 26.5818L21.5781 26.6519L21.5587 26.7223L21.54 26.7928L21.5222 26.8633L21.5051 26.9339L21.4887 27.0046L21.4731 27.0754L21.4583 27.1463L21.4442 27.2171L21.4308 27.288L21.4182 27.3591L21.4064 27.43L21.3953 27.501L21.3849 27.5722L21.3753 27.6431L21.3665 27.7143L21.3584 27.7852L21.351 27.8563L21.3444 27.9275L21.3385 27.9984L21.3334 28.0694L21.329 28.1404L21.3253 28.2112L21.3224 28.282L21.3202 28.3527L21.3188 28.4235L21.318 28.4941L21.3181 28.5646L21.3188 28.635L21.3203 28.7054L21.3225 28.7756L21.3254 28.8457L21.329 28.9157L21.3334 28.9855L21.3385 29.0552L21.3443 29.1248L21.3508 29.1942L21.358 29.2636L21.3659 29.3325L21.3745 29.4016L21.3838 29.4702L21.3939 29.5389L21.4046 29.6072L21.416 29.6754L21.4281 29.7435L21.4409 29.8112L21.4544 29.8788L21.4685 29.946L21.4834 30.0132L21.4989 30.08L21.5151 30.1467L21.5319 30.2129L21.5495 30.2792L21.5676 30.3449L21.5864 30.4106L21.6059 30.4758L21.626 30.5409L21.6468 30.6056L21.6682 30.6699L21.6903 30.7342L21.713 30.798L21.7363 30.8614L21.7602 30.9247L21.7848 30.9876L21.81 31.0501L21.8358 31.1123L21.8621 31.1741L21.8892 31.2357L21.9168 31.2969L21.945 31.3577L21.9738 31.4181L22.0031 31.4781L22.0332 31.538L22.0636 31.5972L22.0947 31.6561L22.1264 31.7147L22.1587 31.7728L22.1915 31.8306L22.2248 31.888L22.2587 31.9448L22.2932 32.0014L22.3281 32.0575L22.3636 32.1131L22.3997 32.1684L22.4362 32.2232L22.4733 32.2777L22.5108 32.3314L22.5489 32.385L22.5875 32.438L22.6265 32.4905L22.6662 32.5427L22.7062 32.5943L22.7467 32.6454L22.7877 32.6961L22.8292 32.7464L22.871 32.796L22.9135 32.8453L22.9563 32.8941L22.9995 32.9423L23.0434 32.9901L23.0874 33.0372L23.132 33.0841L23.177 33.1303L23.2223 33.176L23.2682 33.2212L23.3144 33.2659L23.361 33.3101L23.408 33.3537L23.4554 33.3968L23.5032 33.4394L23.5513 33.4814L23.5998 33.5229L23.6486 33.5639L23.6978 33.6043L23.7474 33.6442L23.7974 33.6835L23.8475 33.7222L23.8981 33.7604L23.949 33.7981L24.0002 33.8352L24.0517 33.8717L24.1035 33.9077L24.1556 33.9431L24.208 33.9779L24.2606 34.0121L24.3135 34.0458L24.3669 34.079L24.4203 34.1114L24.474 34.1434L24.5281 34.1748L24.5822 34.2055L24.6366 34.2357L24.6915 34.2654L24.7464 34.2944L24.8015 34.3228L24.8568 34.3506L24.9125 34.3779L24.9681 34.4045L25.0242 34.4306L25.0803 34.4561L25.1365 34.4809L25.1931 34.5052L25.2498 34.5289L25.3065 34.552L25.3635 34.5745L25.4206 34.5963L25.478 34.6176L25.5352 34.6383L25.5929 34.6584L25.6504 34.6778L25.7081 34.6967L25.766 34.715L25.824 34.7327L25.882 34.7497L25.9401 34.7662L25.9984 34.782L26.0567 34.7973L26.115 34.8119L26.1734 34.826L26.2318 34.8394L26.2903 34.8522L26.3489 34.8645L26.4075 34.8761L26.4661 34.8872L26.5247 34.8976L26.5834 34.9075L26.6421 34.9167L26.7008 34.9254L26.7593 34.9334L26.818 34.9408L26.8766 34.9477L26.9353 34.954L26.9939 34.9596L27.0525 34.9647L27.111 34.9692L27.1694 34.9731L27.2279 34.9764L27.2862 34.9791L27.3444 34.9813L27.4028 34.9828L27.4608 34.9838L27.5188 34.9842L27.5768 34.984L27.6346 34.9833L27.6925 34.9819L27.7502 34.98L27.8076 34.9776L27.865 34.9745L27.9225 34.9709L27.9795 34.9667L28.0366 34.962L28.0934 34.9567L28.1502 34.9509L28.2068 34.9444L28.2631 34.9375L28.3195 34.93L28.3755 34.9219L28.4313 34.9133L28.4872 34.9042L28.5427 34.8945L28.598 34.8843L28.6532 34.8735L28.7082 34.8622L28.7628 34.8504L28.8172 34.8381L28.8716 34.8252L28.9257 34.8118L28.9795 34.798L29.0331 34.7836L29.0864 34.7687L29.1397 34.7532L29.1925 34.7373L29.2449 34.7209L29.2975 34.7039L29.3495 34.6865L29.4013 34.6687L29.4528 34.6503L29.504 34.6314L29.5551 34.612L29.6058 34.5922L29.6561 34.5719L29.7062 34.5512L29.756 34.5299L29.8056 34.5082L29.8546 34.4861L29.9036 34.4635L29.9521 34.4405L30.0002 34.417L30.0482 34.3931L30.0956 34.3688L30.1429 34.344L30.1898 34.3187L30.2363 34.2931L30.2824 34.2671L30.3283 34.2406L30.3738 34.2137L30.4188 34.1864L30.4635 34.1587L30.5079 34.1306L30.5519 34.1022L30.5956 34.0733L30.6388 34.0441L30.6817 34.0144L30.7242 33.9844L30.7662 33.9541L30.8079 33.9233L30.8492 33.8922L30.8901 33.8607L30.9306 33.8289L30.9708 33.7967L31.0104 33.7643L31.0497 33.7315L31.0885 33.6983L31.1269 33.6648L31.165 33.631L31.2026 33.5968L31.2398 33.5624L31.2764 33.5277L31.3128 33.4926L31.3487 33.4572L31.3842 33.4216L31.4192 33.3857L31.4537 33.3494L31.4878 33.313L31.5216 33.2761L31.5547 33.2392L31.5876 33.2018L31.6199 33.1642L31.6517 33.1265L31.6833 33.0883L31.7141 33.0501L31.7447 33.0115L31.7748 32.9728L31.8043 32.9338L31.8335 32.8945L31.8621 32.8552L31.8903 32.8154L31.9181 32.7755L31.9453 32.7356L31.9721 32.6952L31.9985 32.6548L32.0242 32.6142L32.0496 32.5734L32.0745 32.5324L32.0989 32.4912L32.1229 32.4499L32.1463 32.4084L32.1693 32.3668L32.1918 32.3249L32.2138 32.2831L32.2353 32.241L32.2564 32.1988L32.277 32.1565L32.2971 32.1139L32.3167 32.0714L32.3358 32.0287L32.3544 31.986L32.3726 31.943L32.3902 31.9001L32.4075 31.8568L32.4241 31.8139L32.4404 31.7703L32.456 31.7274L32.4713 31.6838L32.4861 31.6402L32.5003 31.5968L32.5141 31.5532L32.5274 31.5097L32.5403 31.4657L32.5525 31.4223L32.5645 31.3782L32.5758 31.3348L32.5867 31.2908L32.5971 31.2468L32.607 31.2031L32.6164 31.1595L32.6254 31.1153L32.6339 31.0716L32.6419 31.0275L32.6494 30.9839L32.6565 30.9401L32.6631 30.8962L32.6692 30.8523L32.6748 30.8085L32.68 30.7649L32.6847 30.7214L32.6889 30.6775L32.6927 30.634L32.696 30.5904L32.6988 30.5469L32.7012 30.5035L32.7031 30.4602L32.7045 30.4171L32.7055 30.3737L32.7061 30.3304L32.7062 30.2875L32.7058 30.2446L32.705 30.2018L32.7037 30.1591L32.702 30.1162L32.6998 30.0741L32.6972 30.0311L32.6942 29.9892L32.6907 29.9471L32.6868 29.9047L32.6824 29.8628L32.6777 29.8213L32.6724 29.7792L32.6668 29.738L32.6607 29.6965L32.6543 29.6556L32.6473 29.6143L32.64 29.5733L32.6323 29.5327L32.6242 29.4922L32.6156 29.4516L32.6066 29.4115L32.5973 29.3714L32.5875 29.3316L32.5774 29.2921L32.5667 29.2523L32.5559 29.2133L32.5445 29.1739L32.5328 29.1352L32.5207 29.0965L32.5082 29.0581L32.4953 29.0198L32.482 28.9816L32.4685 28.944L32.4545 28.9065L32.4401 28.8689L32.4254 28.8319L32.4103 28.7947L32.395 28.7584L32.3791 28.7217L32.3631 28.6856L32.3466 28.6498L32.3298 28.614L32.3127 28.5786L32.2952 28.5434L32.2774 28.5084L32.2593 28.4738L32.2408 28.4394L32.2221 28.4053L32.203 28.3714L32.1835 28.3378L32.1639 28.3045L32.1439 28.2715L32.1235 28.2386L32.1029 28.2063L32.082 28.1741L32.0608 28.1422L32.0393 28.1105L32.0176 28.0793L31.9955 28.0482L31.9732 28.0175L31.9506 27.9871L31.9277 27.957L31.9047 27.9272L31.8812 27.8976L31.8576 27.8685L31.8337 27.8396L31.8096 27.811L31.7852 27.7827L31.7607 27.7548L31.7358 27.7272L31.7107 27.6999L31.6854 27.6728L31.6599 27.6462L31.6341 27.6199L31.6081 27.5938L31.582 27.5682L31.5556 27.5429L31.5291 27.5179L31.5021 27.4931L31.4753 27.4688L31.4481 27.4447L31.4208 27.4211L31.3932 27.3977L31.3655 27.3748L31.3376 27.3521L31.3096 27.3298L31.2814 27.3078L31.253 27.2861L31.2245 27.2649L31.1958 27.2439L31.1669 27.2233L31.138 27.2031L31.1089 27.1831L31.0797 27.1636L31.0503 27.1444L31.0207 27.1255L30.9912 27.107L30.9613 27.0888L30.9315 27.071L30.9016 27.0536L30.8715 27.0365L30.8412 27.0197L30.811 27.0033L30.7807 26.9872L30.7502 26.9715L30.7198 26.9562L30.689 26.9411L30.6584 26.9265L30.6276 26.9123L30.5968 26.8983L30.5659 26.8847L30.5348 26.8714L30.504 26.8586L30.4728 26.8461L30.4416 26.8339L30.4105 26.8221L30.3793 26.8106L30.3481 26.7995L30.3168 26.7887L30.2855 26.7782L30.2543 26.7682L30.2229 26.7584L30.1915 26.749L30.1603 26.74L30.1287 26.7313L30.0975 26.723L30.0661 26.715L30.0347 26.7073L30.0033 26.7L29.972 26.693L29.9406 26.6864L29.9093 26.6801L29.8781 26.6741L29.8469 26.6685L29.8155 26.6632L29.7845 26.6583L29.7531 26.6537L29.7222 26.6494L29.691 26.6454L29.66 26.6418L29.6292 26.6385L29.5982 26.6356L29.5674 26.6329L29.5366 26.6306L29.5059 26.6286L29.4752 26.6269L29.4446 26.6256L29.4143 26.6246L29.3838 26.6238L29.3535 26.6234L29.3232 26.6233L29.2931 26.6236L29.263 26.6241L29.2331 26.6249L29.2032 26.6261L29.1736 26.6275L29.1438 26.6293L29.1144 26.6313L29.085 26.6336L29.0557 26.6363L29.0266 26.6392L28.9974 26.6424L28.9686 26.6459L28.9398 26.6497L28.9112 26.6538L28.8826 26.6582L28.8543 26.6628L28.826 26.6677L28.7981 26.6729L28.77 26.6784L28.7423 26.6841L28.7146 26.6901L28.6872 26.6964Z" fill="#FF7E3A"/>
<path d="M63.8 38V19.375H67.05L74.025 28.85H72.475L79.3 19.375H82.55V38H79.125V23.25L80.45 23.575L73.375 33H72.975L66.075 23.575L67.2 23.25V38H63.8ZM90.6895 38.3C89.6395 38.3 88.7228 38.0667 87.9395 37.6C87.1728 37.1333 86.5811 36.4833 86.1645 35.65C85.7645 34.8167 85.5645 33.8417 85.5645 32.725V24.4H88.8395V32.45C88.8395 33.0167 88.9478 33.5167 89.1645 33.95C89.3978 34.3667 89.7228 34.7 90.1395 34.95C90.5728 35.1833 91.0561 35.3 91.5895 35.3C92.1228 35.3 92.5978 35.1833 93.0145 34.95C93.4311 34.7 93.7561 34.3583 93.9895 33.925C94.2228 33.4917 94.3395 32.975 94.3395 32.375V24.4H97.6145V38H94.5145V35.325L94.7895 35.8C94.4728 36.6333 93.9478 37.2583 93.2145 37.675C92.4978 38.0917 91.6561 38.3 90.6895 38.3ZM105.834 38.3C104.384 38.3 103.117 37.9583 102.034 37.275C100.967 36.575 100.234 35.6333 99.8338 34.45L102.284 33.275C102.634 34.0417 103.117 34.6417 103.734 35.075C104.367 35.5083 105.067 35.725 105.834 35.725C106.434 35.725 106.909 35.5917 107.259 35.325C107.609 35.0583 107.784 34.7083 107.784 34.275C107.784 34.0083 107.709 33.7917 107.559 33.625C107.425 33.4417 107.234 33.2917 106.984 33.175C106.75 33.0417 106.492 32.9333 106.209 32.85L103.984 32.225C102.834 31.8917 101.959 31.3833 101.359 30.7C100.775 30.0167 100.484 29.2083 100.484 28.275C100.484 27.4417 100.692 26.7167 101.109 26.1C101.542 25.4667 102.134 24.975 102.884 24.625C103.65 24.275 104.525 24.1 105.509 24.1C106.792 24.1 107.925 24.4083 108.909 25.025C109.892 25.6417 110.592 26.5083 111.009 27.625L108.509 28.8C108.275 28.1833 107.884 27.6917 107.334 27.325C106.784 26.9583 106.167 26.775 105.484 26.775C104.934 26.775 104.5 26.9 104.184 27.15C103.867 27.4 103.709 27.725 103.709 28.125C103.709 28.375 103.775 28.5917 103.909 28.775C104.042 28.9583 104.225 29.1083 104.459 29.225C104.709 29.3417 104.992 29.45 105.309 29.55L107.484 30.2C108.6 30.5333 109.459 31.0333 110.059 31.7C110.675 32.3667 110.984 33.1833 110.984 34.15C110.984 34.9667 110.767 35.6917 110.334 36.325C109.9 36.9417 109.3 37.425 108.534 37.775C107.767 38.125 106.867 38.3 105.834 38.3ZM113.501 38V24.4H116.776V38H113.501ZM113.501 22.875V19.375H116.776V22.875H113.501ZM121.374 38V27.325H118.974V24.4H121.374V23.95C121.374 22.9167 121.583 22.0417 121.999 21.325C122.433 20.5917 123.033 20.0333 123.799 19.65C124.566 19.2667 125.474 19.075 126.524 19.075C126.724 19.075 126.941 19.0917 127.174 19.125C127.424 19.1417 127.633 19.1667 127.799 19.2V22.025C127.633 21.9917 127.474 21.975 127.324 21.975C127.191 21.9583 127.066 21.95 126.949 21.95C126.216 21.95 125.649 22.1167 125.249 22.45C124.849 22.7667 124.649 23.2667 124.649 23.95V24.4H127.674V27.325H124.649V38H121.374ZM131.606 43.5C131.239 43.5 130.881 43.4667 130.531 43.4C130.181 43.35 129.864 43.25 129.581 43.1V40.375C129.797 40.425 130.056 40.475 130.356 40.525C130.672 40.575 130.964 40.6 131.231 40.6C131.981 40.6 132.522 40.425 132.856 40.075C133.206 39.7417 133.514 39.2917 133.781 38.725L134.681 36.625L134.631 39.375L128.706 24.4H132.231L136.381 35.45H135.131L139.256 24.4H142.806L136.881 39.375C136.531 40.2417 136.106 40.9833 135.606 41.6C135.106 42.2167 134.522 42.6833 133.856 43C133.206 43.3333 132.456 43.5 131.606 43.5Z" fill="white"/>
</svg>
