<svg width="24" height="24" viewBox="0 0 24 24" fill="none" xmlns="http://www.w3.org/2000/svg">
<path opacity="0.4" d="M16.19 2H7.82001C4.18001 2 2.01001 4.17 2.01001 7.81V16.18C2.01001 19.82 4.18001 21.99 7.82001 21.99H16.19C19.83 21.99 22 19.82 22 16.18V7.81C22 4.17 19.83 2 16.19 2Z" fill="white"/>
<path d="M15.62 7.09996L13.33 6.34001C12.75 6.14001 12.16 6.21996 11.71 6.53996C11.26 6.85996 11.01 7.39999 11.01 8.00999V8.61998V12.8C10.61 12.58 10.16 12.45 9.66998 12.45C8.12998 12.45 6.87 13.71 6.87 15.25C6.87 16.79 8.12998 18.05 9.66998 18.05C11.21 18.05 12.47 16.79 12.47 15.25V10.7C12.48 10.71 12.5 10.71 12.51 10.72L14.8 11.48C15.01 11.55 15.23 11.59 15.44 11.59C15.8 11.59 16.14 11.49 16.42 11.28C16.87 10.96 17.12 10.42 17.12 9.80998V9.2C17.12 8.29 16.48 7.38996 15.62 7.09996ZM9.66998 16.59C8.92998 16.59 8.34003 15.99 8.34003 15.26C8.34003 14.52 8.93998 13.92 9.66998 13.92C10.41 13.92 11.01 14.52 11.01 15.26C11.01 15.99 10.41 16.59 9.66998 16.59Z" fill="white"/>
</svg>
