<svg width="17" height="17" viewBox="0 0 17 17" fill="none" xmlns="http://www.w3.org/2000/svg">
<path d="M2.83333 9.20835C3.22454 9.20835 3.54167 8.89122 3.54167 8.50002C3.54167 8.10882 3.22454 7.79169 2.83333 7.79169C2.44213 7.79169 2.125 8.10882 2.125 8.50002C2.125 8.89122 2.44213 9.20835 2.83333 9.20835Z" fill="white" stroke="white" stroke-width="2"/>
<path d="M8.50008 9.20835C8.89128 9.20835 9.20841 8.89122 9.20841 8.50002C9.20841 8.10882 8.89128 7.79169 8.50008 7.79169C8.10888 7.79169 7.79175 8.10882 7.79175 8.50002C7.79175 8.89122 8.10888 9.20835 8.50008 9.20835Z" fill="white" stroke="white" stroke-width="2"/>
<path d="M14.1666 9.20835C14.5578 9.20835 14.8749 8.89122 14.8749 8.50002C14.8749 8.10882 14.5578 7.79169 14.1666 7.79169C13.7754 7.79169 13.4583 8.10882 13.4583 8.50002C13.4583 8.89122 13.7754 9.20835 14.1666 9.20835Z" fill="white" stroke="white" stroke-width="2"/>
</svg>
