<svg width="24" height="24" viewBox="0 0 24 24" fill="none" xmlns="http://www.w3.org/2000/svg">
<path opacity="0.4" d="M2.74994 18.65C2.33994 18.65 1.99994 18.31 1.99994 17.9V12.2C1.94994 9.49005 2.95994 6.93005 4.83994 5.01005C6.71994 3.10005 9.23994 2.05005 11.9499 2.05005C17.4899 2.05005 21.9999 6.56005 21.9999 12.1V17.8C21.9999 18.21 21.6599 18.55 21.2499 18.55C20.8399 18.55 20.4999 18.21 20.4999 17.8V12.1C20.4999 7.39005 16.6699 3.55005 11.9499 3.55005C9.63994 3.55005 7.49994 4.44005 5.90994 6.06005C4.30994 7.69005 3.45994 9.86005 3.49994 12.18V17.89C3.49994 18.31 3.16994 18.65 2.74994 18.65Z" fill="white"/>
<path d="M5.94 12.45H5.81C3.71 12.45 2 14.16 2 16.26V18.14C2 20.24 3.71 21.95 5.81 21.95H5.94C8.04 21.95 9.75 20.24 9.75 18.14V16.26C9.75 14.16 8.04 12.45 5.94 12.45Z" fill="white"/>
<path d="M18.19 12.45H18.06C15.96 12.45 14.25 14.16 14.25 16.26V18.14C14.25 20.24 15.96 21.95 18.06 21.95H18.19C20.29 21.95 22 20.24 22 18.14V16.26C22 14.16 20.29 12.45 18.19 12.45Z" fill="white"/>
</svg>
