<svg width="56" height="56" viewBox="0 0 56 56" fill="none" xmlns="http://www.w3.org/2000/svg">
<rect width="56" height="56" rx="28" fill="#121212"/>
<path d="M28.0001 12.6401C23.8286 12.6401 23.3055 12.6578 21.6672 12.7326C20.0323 12.8072 18.9157 13.0668 17.9387 13.4465C16.9286 13.8391 16.072 14.3643 15.2181 15.2182C14.3642 16.0721 13.839 16.9287 13.4465 17.9387C13.0668 18.9157 12.8071 20.0323 12.7325 21.6672C12.6578 23.3055 12.6401 23.8286 12.6401 28.0001C12.6401 32.1716 12.6578 32.6947 12.7325 34.333C12.8071 35.9679 13.0668 37.0844 13.4465 38.0614C13.839 39.0715 14.3642 39.9281 15.2181 40.782C16.072 41.6359 16.9286 42.1611 17.9387 42.5537C18.9157 42.9333 20.0323 43.193 21.6672 43.2676C23.3055 43.3423 23.8286 43.36 28.0001 43.36C32.1716 43.36 32.6947 43.3423 34.333 43.2676C35.9679 43.193 37.0844 42.9333 38.0614 42.5537C39.0715 42.1611 39.9281 41.6359 40.782 40.782C41.6359 39.9281 42.1611 39.0715 42.5537 38.0614C42.9333 37.0844 43.193 35.9679 43.2676 34.333C43.3423 32.6947 43.36 32.1716 43.36 28.0001C43.36 23.8286 43.3423 23.3055 43.2676 21.6672C43.193 20.0323 42.9333 18.9157 42.5537 17.9387C42.1611 16.9287 41.6359 16.0721 40.782 15.2182C39.9281 14.3643 39.0715 13.8391 38.0614 13.4465C37.0844 13.0668 35.9679 12.8072 34.333 12.7326C32.6947 12.6578 32.1716 12.6401 28.0001 12.6401ZM28.0001 15.4078C32.1014 15.4078 32.5872 15.4234 34.2068 15.4973C35.7044 15.5656 36.5177 15.8158 37.0589 16.0261C37.7759 16.3048 38.2876 16.6377 38.825 17.1751C39.3626 17.7126 39.6954 18.2243 39.974 18.9412C40.1844 19.4825 40.4346 20.2958 40.5029 21.7933C40.5768 23.413 40.5925 23.8988 40.5925 28.0001C40.5925 32.1014 40.5768 32.5872 40.5029 34.2068C40.4346 35.7044 40.1844 36.5177 39.974 37.0589C39.6954 37.7759 39.3626 38.2876 38.825 38.825C38.2876 39.3626 37.7759 39.6954 37.0589 39.974C36.5177 40.1844 35.7044 40.4346 34.2068 40.5029C32.5874 40.5768 32.1017 40.5925 28.0001 40.5925C23.8985 40.5925 23.4128 40.5768 21.7933 40.5029C20.2958 40.4346 19.4825 40.1844 18.9412 39.974C18.2243 39.6954 17.7126 39.3626 17.1751 38.825C16.6376 38.2876 16.3047 37.7759 16.0261 37.0589C15.8158 36.5177 15.5655 35.7044 15.4972 34.2068C15.4233 32.5872 15.4077 32.1014 15.4077 28.0001C15.4077 23.8988 15.4233 23.413 15.4972 21.7933C15.5655 20.2958 15.8158 19.4825 16.0261 18.9412C16.3047 18.2243 16.6376 17.7126 17.1751 17.1751C17.7126 16.6377 18.2243 16.3048 18.9412 16.0261C19.4825 15.8158 20.2958 15.5656 21.7933 15.4973C23.413 15.4234 23.8988 15.4078 28.0001 15.4078Z" fill="white"/>
<path d="M28.0001 33.1198C25.1724 33.1198 22.8801 30.8275 22.8801 27.9999C22.8801 25.1721 25.1724 22.8799 28.0001 22.8799C30.8278 22.8799 33.1201 25.1721 33.1201 27.9999C33.1201 30.8275 30.8278 33.1198 28.0001 33.1198ZM28.0001 20.1123C23.6439 20.1123 20.1125 23.6436 20.1125 27.9999C20.1125 32.356 23.6439 35.8874 28.0001 35.8874C32.3563 35.8874 35.8876 32.356 35.8876 27.9999C35.8876 23.6436 32.3563 20.1123 28.0001 20.1123Z" fill="white"/>
<path d="M38.0424 19.8007C38.0424 20.8187 37.2171 21.6439 36.1991 21.6439C35.1812 21.6439 34.356 20.8187 34.356 19.8007C34.356 18.7827 35.1812 17.9575 36.1991 17.9575C37.2171 17.9575 38.0424 18.7827 38.0424 19.8007Z" fill="white"/>
</svg>
