<svg width="56" height="56" viewBox="0 0 56 56" fill="none" xmlns="http://www.w3.org/2000/svg">
<rect width="56" height="56" rx="28" fill="#121212"/>
<path d="M43.6411 18.2983C42.4911 18.8095 41.2535 19.1543 39.9549 19.3086C41.2808 18.5149 42.2974 17.2576 42.7769 15.7577C41.5367 16.4937 40.1638 17.0277 38.7014 17.316C37.5311 16.0688 35.863 15.2891 34.017 15.2891C30.4731 15.2891 27.5997 18.1624 27.5997 21.707C27.5997 22.2093 27.6563 22.6989 27.7661 23.1694C22.4321 22.9014 17.7026 20.3468 14.5372 16.4638C13.9847 17.4112 13.6685 18.5136 13.6685 19.6909C13.6685 21.9172 14.8013 23.8819 16.5235 25.0325C15.4719 24.9988 14.4819 24.7099 13.6164 24.2292C13.6158 24.2559 13.6158 24.2832 13.6158 24.3105C13.6158 27.4194 15.8281 30.0128 18.7644 30.6033C18.2259 30.7494 17.6588 30.8281 17.0734 30.8281C16.6593 30.8281 16.2574 30.7881 15.8656 30.7126C16.6828 33.2621 19.0527 35.1182 21.8606 35.1696C19.6642 36.8911 16.8975 37.9173 13.8901 37.9173C13.3726 37.9173 12.8614 37.8868 12.3591 37.8271C15.2001 39.6489 18.5732 40.7106 22.1972 40.7106C34.0024 40.7106 40.4572 30.9316 40.4572 22.4506C40.4572 22.1725 40.4515 21.895 40.4394 21.6194C41.6929 20.7164 42.7813 19.5855 43.6411 18.2983Z" fill="white"/>
</svg>
