<svg width="24" height="24" viewBox="0 0 24 24" fill="none" xmlns="http://www.w3.org/2000/svg">
<path d="M11.5336 2.41676C11.7992 2.17939 12.2008 2.17939 12.4664 2.41676L14.8406 4.53818C14.9588 4.64382 15.1094 4.7062 15.2677 4.7151L18.4466 4.89382C18.8023 4.91382 19.0862 5.19775 19.1062 5.55342L19.2849 8.7323C19.2938 8.8906 19.3562 9.04118 19.4618 9.15941L21.5832 11.5336C21.8206 11.7992 21.8206 12.2008 21.5832 12.4664L19.4618 14.8406C19.3562 14.9588 19.2938 15.1094 19.2849 15.2677L19.1062 18.4466C19.0862 18.8023 18.8023 19.0862 18.4466 19.1062L15.2677 19.2849C15.1094 19.2938 14.9588 19.3562 14.8406 19.4618L12.4664 21.5832C12.2008 21.8206 11.7992 21.8206 11.5336 21.5832L9.15941 19.4618C9.04118 19.3562 8.8906 19.2938 8.7323 19.2849L5.55342 19.1062C5.19775 19.0862 4.91382 18.8023 4.89382 18.4466L4.7151 15.2677C4.7062 15.1094 4.64382 14.9588 4.53818 14.8406L2.41676 12.4664C2.17939 12.2008 2.17939 11.7992 2.41676 11.5336L4.53818 9.15941C4.64382 9.04118 4.7062 8.8906 4.7151 8.7323L4.89382 5.55342C4.91382 5.19775 5.19775 4.91382 5.55342 4.89382L8.7323 4.7151C8.8906 4.7062 9.04118 4.64382 9.15941 4.53818L11.5336 2.41676Z" fill="#13A8F2"/>
<path d="M9.08337 12.4167L10.75 14.0834L14.9167 9.91675" fill="white"/>
<path d="M9.08337 12.4167L10.75 14.0834L14.9167 9.91675" stroke="white" stroke-width="1.5" stroke-linecap="round" stroke-linejoin="round"/>
</svg>
